/* XPM */
static char *result[] = {
/* columns rows colors chars-per-pixel */
"50 50 148 2 ",
"   c #361E1D",
".  c #3E201F",
"X  c #262223",
"o  c #2A2627",
"O  c #2B2729",
"+  c #2D292B",
"@  c #342323",
"#  c #3C2323",
"$  c #312D2E",
"%  c #3D2E2F",
"&  c #372F30",
"*  c #392F30",
"=  c #343133",
"-  c #393536",
";  c #363638",
":  c #393739",
">  c #3C393A",
",  c #442424",
"<  c #4C2625",
"1  c #532725",
"2  c #5C2826",
"3  c #453030",
"4  c #413E3F",
"5  c #533D3E",
"6  c #5B3C3B",
"7  c #642927",
"8  c #6C2B28",
"9  c #742C29",
"0  c #7D2E2A",
"q  c #6B3634",
"w  c #6D3836",
"e  c #633B3A",
"r  c #753633",
"t  c #7C3633",
"y  c #3E3E40",
"u  c #423F40",
"i  c #503F40",
"p  c #444243",
"a  c #4C4546",
"s  c #4C4748",
"d  c #4D4B4D",
"f  c #514242",
"g  c #514E4E",
"h  c #4E4E50",
"j  c #504F51",
"k  c #525254",
"l  c #595556",
"z  c #555658",
"x  c #5B5758",
"c  c #57585A",
"v  c #59585A",
"b  c #615F61",
"n  c #646263",
"m  c #696667",
"M  c #6A6768",
"N  c #6C6A6B",
"B  c #706C6D",
"V  c #757373",
"C  c #797676",
"Z  c #7A7778",
"A  c #7C7A7A",
"S  c #822B27",
"D  c #832F2A",
"F  c #8F302C",
"G  c #90312C",
"H  c #803633",
"J  c #8D3631",
"K  c #953631",
"L  c #9B3631",
"P  c #A6342E",
"I  c #AB352F",
"U  c #BB362E",
"Y  c #A43731",
"T  c #AE3731",
"R  c #AF3831",
"E  c #B43730",
"W  c #BA3730",
"Q  c #B43831",
"!  c #BC3831",
"~  c #C9372F",
"^  c #C53932",
"/  c #CA3A32",
"(  c #D43C33",
")  c #DC3C33",
"_  c #E43E34",
"`  c #EE3E34",
"'  c #EF4036",
"]  c #EF443A",
"[  c #F14036",
"{  c #807E7E",
"}  c #947675",
"|  c #AE7976",
" . c #C15C57",
".. c #F04C43",
"X. c #E2554D",
"o. c #F1534A",
"O. c #F25D55",
"+. c #F26057",
"@. c #F26159",
"#. c #F36D65",
"$. c #F3726B",
"%. c #F37E77",
"&. c #F6837C",
"*. c #817F80",
"=. c #858484",
"-. c #888787",
";. c #8C8A8B",
":. c #918E8E",
">. c #949292",
",. c #999696",
"<. c #9D9B9B",
"1. c #A19E9E",
"2. c #A3A0A0",
"3. c #A8A5A5",
"4. c #ADABAB",
"5. c #B1AFAF",
"6. c #B5B2B3",
"7. c #BEBDBD",
"8. c #F68F89",
"9. c #F58B85",
"0. c #F69893",
"q. c #C0B3B2",
"w. c #C0BEBF",
"e. c #F9B3AF",
"r. c #F9B7B4",
"t. c #C0BFC0",
"y. c #C4C3C3",
"u. c #C8C7C7",
"i. c #C8C7C8",
"p. c #CCCBCB",
"a. c #D0CFCF",
"s. c #D5D4D4",
"d. c #DCDBDB",
"f. c #ECC9C7",
"g. c #F9C7C4",
"h. c #FBCDCA",
"j. c #FCD6D4",
"k. c #FCD9D7",
"l. c #FCDDDB",
"z. c #FCE0DF",
"x. c #E4E3E3",
"c. c #ECECEC",
"v. c #FEE8E6",
"b. c #FEEEED",
"n. c #F5F5F5",
"m. c #FDF5F5",
"M. c #FFFFFF",
"N. c grey",
/* pixels */
"N.N.N.N.N.N.N.N.N.N.N.N.N.N.N.N.N.N.N.N., 1 7 8 9 9 8 2 1 # N.N.N.N.N.N.N.N.N.N.N.N.N.N.N.N.N.N.N.N.",
"N.N.N.N.N.N.N.N.N.N.N.N.N.N.N.N.@ 2 D I ^ ) _ ' ' ' ' ) ) / T D 2 @ N.N.N.N.N.N.N.N.N.N.N.N.N.N.N.N.",
"N.N.N.N.N.N.N.N.N.N.N.N.N.N., 0 Q _ [ [ [ [ ' ' ' ' ' ' [ [ [ [ _ W 0 , N.N.N.N.N.N.N.N.N.N.N.N.N.N.",
"N.N.N.N.N.N.N.N.N.N.N.N.. S ~ ` [ [ ' [ ' ' ' ' ' ' ' ' ' ' ' [ ` ] ' / D , N.N.N.N.N.N.N.N.N.N.N.N.",
"N.N.N.N.N.N.N.N.N.N.N.q  .%.&.#...` ` ` [ [ ' ' ' ' ' ' ' ' ' ' ' ' ' ' ` ^ 8 N.N.N.N.N.N.N.N.N.N.N.",
"N.N.N.N.N.N.N.N.N.% } f.m.M.M.m.g.+.` ` [ [ ' ' ' ' ' ' ' ' ' ' ' ' ' ' ' ` _ G @ N.N.N.N.N.N.N.N.N.",
"N.N.N.N.N.N.N.N.s 6.m.M.M.M.M.M.M.h...` [ ' ' ' ' ' ' ' ' ' ' ' ' ' ' ' ' ' ] ` I , N.N.N.N.N.N.N.N.",
"N.N.N.N.N.N.N.s y.M.M.M.M.M.M.M.M.m.$.` ' ' ' ' ' ' ' ' ' ' ' ' ' ' ' ' ' ' ' ' [ U < N.N.N.N.N.N.N.",
"N.N.N.N.N.N.3 q.M.M.M.M.M.M.M.M.M.M.&.` ` ` [ ` ' ' ' ' ' ' ' ' ' ' ' ' ' ' ' ' [ [ W , N.N.N.N.N.N.",
"N.N.N.N.N.  | m.M.M.M.M.M.M.M.M.M.m.$.` [ ` ] ` ' ' ' ' ' [ ' ' ' ' ' ' ' ' ' ' [ [ ` Y @ N.N.N.N.N.",
"N.N.N.N.N.J g.M.M.M.M.M.M.M.M.M.M.l.o.` [ ] [ ] ' ' ' ' ' ' ' ' ' ' ' [ ' ' ' ' ' ' ' ' G N.N.N.N.N.",
"N.N.N.N.7 X.v.M.M.M.M.M.M.M.M.M.M.0.` [ ` ` [ ` ' ' ' ' ' ' ' ' ' ' ' ' ' ' ' ' ' ' ' ` _ 8 N.N.N.N.",
"N.N.N.# U O.b.M.M.M.M.M.M.M.M.M.g...` ` ` ` ` ` [ [ ] ` [ [ [ [ ` [ [ ' ' ' ' ' ' ' ' ' [ ! # N.N.N.",
"N.N.N.D ' ..k.M.M.M.M.M.M.M.M.h.O.` [ [ ] [ [ ] [ ` ` _ / R Y Y W ) ' [ ' ' ' ' ' ' ' ' ' ' D N.N.N.",
"N.N., ^ [ ' 8.m.M.M.M.M.M.m.e.o.` ' ' ' ` [ ` ] [ ` T q f d h d s 6 J ( [ ' ' ' ' ' [ ' ' ' / , N.N.",
"N.N.9 ' ' ' ] 9.j.b.b.v.r.$.] ` [ ' ' ' ` ] ` ` ) H a z c k k k k c h 6 Q [ ' ' ' ' ' ' ' ' ' 0 N.N.",
"N.N.E [ ] ` ` ` ..O.O.o.] ` [ [ ' ' ' ' ' ' ' _ r d v k j N -.=.N h k z 5 Q [ ' ' ' ' ' ' ' [ W N.N.",
"N.2 ) [ ` ` ] ' [ ` ` ` ` [ [ ` ' ' ' [ [ ' [ K d v j N i.x.d.d.x.t.n k k 6 ) ` ' ' ' ' ' ' [ ) 2 N.",
"N.D ' ' ` [ ' ' ' ' ' ' [ [ ] ` [ ' ` _ ) ) U 5 c k N x.p.7.s.s.7.a.d.n k h J ` ' ' ' ' ' ' [ [ D N.",
"N.P [ [ [ [ ' [ ' [ [ [ ` ) ^ R K H w e 6 6 5 k v j p.i.s.M.M.M.M.p.a.7.h c 6 ) [ [ ' ' ' ' ' [ I N.",
"# ^ ] ` ` ` ] ` ` ) ! L r 6 a d h k k c c c c c k C x.y.M.M.M.M.M.m.7.x.m z s r Y / _ [ [ [ [ [ ^ # ",
"< ( [ ` ] ` ) E H 6 s h k c v v v c v c v c v v h >.s.s.M.M.M.M.M.M.s.d.=.j v h d f q L ( ` ` ` ) < ",
"2 _ [ _ Q H 6 d k c v v v c v v c v c v v v v v h ,.s.d.M.M.M.M.M.M.s.d.=.k v v v v c d i t ! ` _ 7 ",
"7 ^ J e d k c v c v v v v v c v v v v v v c v c k Z x.y.M.M.M.M.M.M.w.x.N k v v v v v v c k a w Y 2 ",
"@ * y c c c v v v v v v v c v c v c z k k h h z c k s.y.d.M.M.M.M.s.i.y.j v v v c l c v v c c z d % ",
"+ ; y z c c v c v v v c k j h d z v M Z *.;.=.h c h Z x.y.y.d.d.y.p.x.N k v v v v v v v v v c v v y ",
"+ ; ; s c c v v z g k v B ;.4.p.d.c.n.n.M.M.m.A j v h C s.x.s.s.x.p.N h c h v k d k c v v c v c c p ",
"+ ; ; > p h h h v <.i.x.m.M.M.M.M.M.M.M.M.M.M.s.v z v j k A ,.,.C k k c d >.c.s.4.=.b h h z v v v > ",
"O = = = u v Z :.1.x.M.M.M.M.M.M.M.M.M.M.M.M.M.M.i.v k c c k h h k v c d -.n.M.M.M.M.c.y.>.n h h c : ",
"X ; z V >.1.2.2.1.p.M.M.M.M.M.M.M.M.M.M.M.M.M.M.M.s.A h h k z z k h v 4.n.M.M.M.M.M.M.M.M.c.y.-.k + ",
"N.N 1.2.2.1.1.1.1.5.n.M.M.M.M.M.M.M.M.M.M.M.M.M.M.M.n.i.>.V n N A 4.x.M.M.M.M.M.M.M.M.M.M.M.M.M.<.N.",
"N.v 1.2.<.1.1.1.1.1.d.M.M.M.M.M.M.M.M.M.M.M.M.M.M.M.M.M.M.m.n.n.M.M.M.M.M.M.M.M.M.M.M.M.M.M.M.M.{ N.",
"N.p >.2.1.1.1.1.1.1.6.m.M.M.M.M.M.M.M.M.M.M.M.M.M.M.M.M.M.M.M.M.M.M.M.M.M.M.M.M.M.M.M.M.M.M.M.x.k N.",
"N.N.{ 2.1.1.1.1.1.1.1.s.M.M.M.M.M.M.M.M.M.M.M.M.M.M.M.M.M.M.M.M.M.M.M.M.M.M.M.M.M.M.M.M.M.M.M.6.N.N.",
"N.N.l 1.1.1.1.1.1.1.1.4.c.M.M.M.M.M.M.M.M.M.M.M.M.M.M.M.M.M.M.M.M.M.M.M.M.M.M.M.M.M.M.M.M.M.m.C N.N.",
"N.N.& *.2.1.1.1.1.1.1.1.7.m.M.M.M.M.M.M.M.M.M.M.M.M.M.M.M.M.M.M.M.M.M.M.M.M.M.M.M.M.M.M.M.M.p.> N.N.",
"N.N.N.l 1.1.1.1.1.1.2.<.<.p.M.M.M.M.M.M.M.M.M.M.M.M.M.M.M.M.M.M.M.M.M.M.M.M.M.M.M.M.M.M.M.n.A N.N.N.",
"N.N.N.$ A 1.1.1.1.2.<.2.2.2.a.m.M.M.M.M.M.M.M.M.M.M.M.M.M.M.M.M.M.M.M.M.M.M.M.M.M.M.M.M.M.6.= N.N.N.",
"N.N.N.N.a ,.1.1.1.1.<.2.<.2.2.p.m.M.M.M.M.M.M.M.M.M.M.M.M.M.M.M.M.M.M.M.M.M.M.M.M.M.M.M.y.a N.N.N.N.",
"N.N.N.N.N.v 1.1.1.1.2.<.2.2.<.2.t.n.M.M.M.M.M.M.M.M.M.M.M.M.M.M.M.M.M.M.M.M.M.M.M.M.n.y.v N.N.N.N.N.",
"N.N.N.N.N.+ B 1.1.1.1.1.1.1.1.1.1.5.x.M.M.M.M.M.M.M.M.M.M.M.M.M.M.M.M.M.M.M.M.M.M.x.6.N o N.N.N.N.N.",
"N.N.N.N.N.N.$ C 2.1.1.1.1.1.1.1.1.1.2.w.x.M.M.M.M.M.M.M.M.M.M.M.M.M.M.M.M.M.M.c.y.2.V $ N.N.N.N.N.N.",
"N.N.N.N.N.N.N.= V 2.1.1.1.1.1.1.1.1.1.1.3.w.d.n.M.M.M.M.M.M.M.M.M.M.M.M.n.x.y.3.1.V $ N.N.N.N.N.N.N.",
"N.N.N.N.N.N.N.N.+ N <.2.1.1.1.1.1.1.1.1.1.1.2.5.t.s.x.c.n.n.n.n.c.x.s.y.5.1.1.<.N $ N.N.N.N.N.N.N.N.",
"N.N.N.N.N.N.N.N.N.o l >.2.1.1.1.1.1.1.1.1.1.1.1.1.1.1.3.4.4.4.3.3.2.1.1.<.1.>.l o N.N.N.N.N.N.N.N.N.",
"N.N.N.N.N.N.N.N.N.N.N.u C <.2.1.1.1.1.1.1.1.1.1.1.1.1.1.1.1.1.1.1.1.1.1.<.C 4 N.N.N.N.N.N.N.N.N.N.N.",
"N.N.N.N.N.N.N.N.N.N.N.N.+ k A <.1.1.1.1.1.1.1.1.1.1.1.1.1.1.1.1.2.2.<.{ g + N.N.N.N.N.N.N.N.N.N.N.N.",
"N.N.N.N.N.N.N.N.N.N.N.N.N.N.+ d V :.<.2.2.2.1.1.1.1.1.1.1.2.2.<.:.B d + N.N.N.N.N.N.N.N.N.N.N.N.N.N.",
"N.N.N.N.N.N.N.N.N.N.N.N.N.N.N.N.X - g M { ;.>.,.<.<.>.:.;.{ m g - X N.N.N.N.N.N.N.N.N.N.N.N.N.N.N.N.",
"N.N.N.N.N.N.N.N.N.N.N.N.N.N.N.N.N.N.N.N.o & > 4 p p 4 4 % o N.N.N.N.N.N.N.N.N.N.N.N.N.N.N.N.N.N.N.N."
};
