/* XPM */
static char *d67e35c53bd34e06ada27171bff6c455VfyJmlDehGBfWcvH[] = {
/* columns rows colors chars-per-pixel */
"50 50 231 2 ",
"   c grey",
".  c #0B0101",
"X  c #06070A",
"o  c #120101",
"O  c #1C0101",
"+  c #170B0A",
"@  c #0E1318",
"#  c #191417",
"$  c #010610",
"%  c #260506",
"&  c #231413",
"*  c #2B1A17",
"=  c #3D1517",
"-  c #241207",
";  c #37240F",
":  c #27211B",
">  c #38251B",
",  c #1D1F20",
"<  c #391F21",
"1  c #242225",
"2  c #2C2323",
"3  c #2A282C",
"4  c #352423",
"5  c #3A2324",
"6  c #39262B",
"7  c #362A29",
"8  c #2C2A32",
"9  c #282F38",
"0  c #362C36",
"q  c #3E3E3B",
"w  c #35343B",
"e  c #39312F",
"r  c #4E2302",
"t  c #542B05",
"y  c #4B2A18",
"u  c #54281B",
"i  c #593D18",
"p  c #4F330E",
"a  c #663C1B",
"s  c #623014",
"d  c #411F21",
"f  c #452A2D",
"g  c #4B2A2B",
"h  c #562722",
"j  c #532A24",
"k  c #532A2D",
"l  c #5D2A2C",
"z  c #54252A",
"x  c #4C322D",
"c  c #483628",
"v  c #53342A",
"b  c #593828",
"n  c #422C33",
"m  c #4C2D32",
"M  c #542E30",
"N  c #5E293B",
"B  c #483939",
"V  c #57373A",
"C  c #663C27",
"Z  c #6A3E34",
"A  c #693A3A",
"S  c #753D3C",
"D  c #783C3C",
"F  c #733638",
"G  c #6B2F39",
"H  c #4C1719",
"J  c #3E413E",
"K  c #7A5414",
"L  c #734C10",
"P  c #424138",
"I  c #674528",
"U  c #724926",
"Y  c #795726",
"T  c #6A4034",
"R  c #684537",
"E  c #7E543D",
"W  c #795A3A",
"Q  c #754C35",
"!  c #3A3341",
"~  c #583E42",
"^  c #4E3D40",
"/  c #643B42",
"(  c #733C41",
")  c #3E454A",
"_  c #584947",
"`  c #564A54",
"'  c #58525B",
"]  c #474B50",
"[  c #6A4544",
"{  c #674749",
"}  c #75494B",
"|  c #7D5743",
" . c #65575B",
".. c #765756",
"X. c #674850",
"o. c #7B635D",
"O. c #4B5561",
"+. c #565762",
"@. c #7D5A65",
"#. c #655664",
"$. c #5A656E",
"%. c #676369",
"&. c #7D6369",
"*. c #746576",
"=. c #88353A",
"-. c #815302",
";. c #996C1C",
":. c #AD7E1A",
">. c #815232",
",. c #84593B",
"<. c #8C6525",
"1. c #986F25",
"2. c #906F36",
"3. c #A67B28",
"4. c #843A42",
"5. c #894D4E",
"6. c #854A4A",
"7. c #984B4C",
"8. c #8C4C52",
"9. c #964D51",
"0. c #875656",
"q. c #975557",
"w. c #885D45",
"e. c #B44E45",
"r. c #B34F49",
"t. c #AC524C",
"y. c #A6534F",
"u. c #B15049",
"i. c #BA564E",
"p. c #A45552",
"a. c #A25857",
"s. c #A25959",
"d. c #A95454",
"f. c #AA534D",
"g. c #856546",
"h. c #976A4A",
"j. c #99764A",
"k. c #9D7354",
"l. c #8E7C5C",
"z. c #A76F55",
"x. c #875A66",
"c. c #9D5B61",
"v. c #835F73",
"b. c #8C6765",
"n. c #967666",
"m. c #9A7A74",
"M. c #877276",
"N. c #AB6564",
"B. c #A97B65",
"V. c #BF736F",
"C. c #BD7573",
"Z. c #B36B6D",
"A. c #C4584D",
"S. c #C0574A",
"D. c #D4685D",
"F. c #CC675D",
"G. c #E8705F",
"H. c #E6705F",
"J. c #E86F5F",
"K. c #C96C64",
"L. c #C4736E",
"P. c #DD7366",
"I. c #D4756C",
"U. c #DB756B",
"Y. c #D9796F",
"T. c #C67672",
"R. c #D37B74",
"E. c #E96F60",
"W. c #E27265",
"Q. c #E57163",
"!. c #E87060",
"~. c #E97061",
"^. c #E27569",
"/. c #B58827",
"(. c #BF973C",
"). c #AC8433",
"_. c #C3951F",
"`. c #C29528",
"'. c #C09533",
"]. c #AE8A4C",
"[. c #BF9C5B",
"{. c #BE994B",
"}. c #B78866",
"|. c #B9877C",
" X c #B29472",
".X c #95866D",
"XX c #C19945",
"oX c #D4A27D",
"OX c #C39278",
"+X c #957B83",
"@X c #B37C87",
"#X c #9B8A86",
"$X c #A78A89",
"%X c #BA969A",
"&X c #AB9092",
"*X c #BEA484",
"=X c #A39BAA",
"-X c #B090A4",
";X c #B0A8B9",
":X c #C48788",
">X c #D29990",
",X c #D4A383",
"<X c #DAAA88",
"1X c #CCA597",
"2X c #D3AB94",
"3X c #E7B89C",
"4X c #C8AEA1",
"5X c #D4AAA7",
"6X c #CCB3A6",
"7X c #DAAEBA",
"8X c #D9B7B7",
"9X c #CDB1B1",
"0X c #E3BCA9",
"qX c #F3CDBC",
"wX c #FAD1BB",
"eX c #EBC7B5",
"rX c #BCB4C7",
"tX c #C8B7C9",
"yX c #DCB8CA",
"uX c #D6C1C9",
"iX c #CDC6D6",
"pX c #D8C4DA",
"aX c #FDD5C4",
"sX c #F5D7C8",
"dX c #F9DBD6",
"fX c #EED2C8",
"gX c #FCE0D3",
"hX c #E8DDF2",
"jX c #FFDDE0",
"kX c #F6E7F9",
"lX c #F4EAF3",
/* pixels */
"                                    . o . . o . o X . o X . X                                       ",
"                                  < n n n f n m f f f f m f n 2                                     ",
"                                o = M M l l l l l l l l C N M = o                                   ",
"                              < f } 0.Z.C.C.L.L.L.L.C.L.C.C.C.0.g f n 2                             ",
"                            o < l 6.y.K.I.I.Y.U.U.U.U.U.U.I.R.s.h l M 5 .                           ",
"                            f } 7.N.I.P.P.W.Q.Q.W.W.W.W.W.W.P.I.K.N.q.} f 4                         ",
"                          6 M 5.f.K.P.P.W.Q.G.G.H.H.~.Q.~.Q.Q.P.I.K.q.5.k 4                         ",
"                          5 z c.R.P.W.H.H.H.!.!.G.Q.~.E.~.E.E.Q.W.P.I.N.j 5                         ",
"                        $ < g s.R.P.Q.Q.!.!.E.!.!.!.!.G.G.!.E.Q.Q.W.Y.N.h d .                       ",
"                      1 9 +X-X:XR.P.W.H.!.!.!.~.E.G.G.G.G.!.G.J.Q.Q.P.K.7.} 6 2                     ",
"                    X 8 ^ @X7X:XT.R.P.W.!.!.~.~.Q.G.!.!.!.G.!.!.G.Q.^.K.p.5.m 6                     ",
"                  1 8 ` #.M.M.5X0X>XU.W.Q.!.~.~.E.!.!.!.!.G.J.Q.Q.Q.^.D.t.5.k 6                     ",
"                X 3 9 +.#.&.x.7XjX>XY.^.Q.W.!.!.!.!.!.!.!.G.G.Q.~.Q.^.F.y.8.M 6                     ",
"              1 3 =XrXiXpX+Xx.7XjX:Xd.D.^.Q.W.~.Q.Q.W.~.Q.Q.Q.Q.Q.D.i.i.p.8.M 6                     ",
"              8 ! iXkXkXkX+Xx.7XjXC.t.F.^.^.Q.Q.Q.^.Q.^.^.Q.W.Q.^.D.e.t.p.8.M 6                     ",
"              0 ! iXkXhXlX9X-X:X@XN.t.i.A.A.A.A.A.A.A.A.A.A.A.A.A.i.e.u.9.8.M 6                     ",
"              8 ! tXkXhXhXyX7X@Xq.p.t.e.e.e.e.e.e.e.r.r.e.e.e.e.e.e.e.t.a.5.k 6                     ",
"              0 ! rXiXhXkX@Xx.c.d.d.u.t.u.u.e.u.u.u.r.r.r.r.u.e.r.t.t.t.a.5.k 7                     ",
"              0 ! =XrXhXkXv.N 8.d.d.t.t.t.t.u.t.u.u.u.u.u.t.u.u.t.t.t.y.q.5.x 7                     ",
"              # # +.*.rXpX@X@Xc.4.7.d.t.t.t.t.t.t.t.t.t.t.t.t.t.t.t.y.7.D Z k 5                     ",
"                $ 8 ! =XtXtXyXx.G 9.c.s.s.s.s.s.s.s.s.s.s.a.a.a.q.a.a.6.u j v 5                     ",
"                X @ # #.*.*.v./ N / ( ( ( F D D D D D D D S D S S S Q S A I c 5                     ",
"                      < n n n B ~ m m m z l j z h h z h h u u h u h h b | [ c >                     ",
"                      n ~ ~ ~ 5 * ` @.X.V M j b A b j C Z T T Z Z Z Z I R v * &                     ",
"                      B { [ { &...%.&X&.[ A u Z | C u C E >.E E E E | Q c >                         ",
"                      V Q b.m.5....XuX$Xn.Q t ,.B.k.h.>.C U >.>.>.Q C v * #                         ",
"                      v R |.4Xx...&XlX8X1Xw.r h.<X,X<Xk.t a >.>.>.U u >                             ",
"                      ..n.1X0Xm...9XdXeX3X}.,.}.oXoX,Xj.t a >.>.,.U y >                             ",
"                      #X4XqXaXsXsXfXqXwXwX3XoXoXoXoX<Xk.t a ,.| W R c >                             ",
"                      { &. X%X0XsXwXwXeX0X<XoXoXoX}.k.,.C b j j v f : &                             ",
"                          x R 1XaXqXwX3X,X,XoX,X<Xh.r a E i o o o . .                               ",
"                          4 f m.1X1X,X|.B.OX,X[.z.>.t i U I v y - + .                               ",
"                              x { R A T Z B.<Xg.r t t t t Y [.2.p ; X X                             ",
"                              5 x A [ 0.b.$X2X.XU L L L K 1.(.).K i - +                             ",
"                                o k [ $X8X9X6X*X Xj.K 2.XX`././.{.).p :                             ",
"                              + & V } b.m.#X#X.Xl.W i <.(._._._.).W ; :                             ",
"                              7 B X.b.5...: J > P * . I {./././.K i o .                             ",
"                              3 B R _ 4 + > J J J :...I ]././.:.<.I . .                             ",
"                              3 P & X 2 P J J J J ,...> Y K K ;.{.| X X                             ",
"                              3 e e 7 R..._ J J e #...; I Y ;.1.].| X X                             ",
"                            P #...#XgXfXfX.XJ ,...X...... b  X].Y b o .                             ",
"                          e B # . #XsXfXfX*.3 , @ @ @ X X e .Xg.R v % + .                           ",
"                          n { * o $XgX6X4X] X J $.$.$.O.J : . O O = A f o                           ",
"                          m / = O m.8X%X#XJ X 9 +.O.O.] ] 3 . % % H ( l o                           ",
"                          m / A / * o o       X $ $ $ 9 %.' B N F =.8.A O                           ",
"                          f V V ~ &                       ` V F =.=.9.S O                           ",
"                          o o o o o                       5 0.5.7.7.9.A O                           ",
"                                                          < ..} 6.6.5.V o                           ",
"                                                          o % % % % % O                             ",
"                                                            o o o O o                               "
};
