/* XPM */
static char *_d2f14b091ce4b3ef1310f6e19d6c9f5I67XeqVM2JS3VI0H[] = {
/* columns rows colors chars-per-pixel */
"50 50 230 2 ",
"   c grey",
".  c #0B0102",
"X  c #0A060A",
"o  c #0B090C",
"O  c #140403",
"+  c #1A0202",
"@  c #130B0B",
"#  c #1B0C0A",
"$  c #150905",
"%  c #130E12",
"&  c #1C1213",
"*  c #171417",
"=  c #0F0E11",
"-  c #250B08",
";  c #29150D",
":  c #231213",
">  c #2B1415",
",  c #26171C",
"<  c #25191B",
"1  c #281917",
"2  c #341D1A",
"3  c #311907",
"4  c #38271A",
"5  c #231D24",
"6  c #351F22",
"7  c #1F222A",
"8  c #27242A",
"9  c #332924",
"0  c #3C2A2C",
"q  c #352626",
"w  c #3C2D32",
"e  c #392D37",
"r  c #36313B",
"t  c #3A323E",
"y  c #3A3634",
"u  c #4B250A",
"i  c #56290A",
"p  c #572B0A",
"a  c #573508",
"s  c #462C19",
"d  c #522814",
"f  c #46341B",
"g  c #5C3315",
"h  c #583716",
"j  c #613418",
"k  c #452629",
"l  c #4E2A2B",
"z  c #4A2B2A",
"x  c #522A22",
"c  c #542B2B",
"v  c #57282B",
"b  c #493227",
"n  c #5A3827",
"m  c #422C34",
"M  c #4C2D32",
"N  c #4B2D39",
"B  c #412C38",
"V  c #532C33",
"C  c #592B30",
"Z  c #4B3135",
"A  c #463839",
"S  c #583538",
"D  c #6A3634",
"F  c #6A3639",
"G  c #6D3A3C",
"H  c #63373C",
"J  c #79393B",
"K  c #632D2E",
"L  c #5E430F",
"P  c #6F4B0F",
"I  c #5B4435",
"U  c #534638",
"Y  c #64422D",
"T  c #6C4128",
"R  c #784929",
"E  c #775725",
"W  c #6B4333",
"Q  c #69473A",
"!  c #76473B",
"~  c #69543A",
"^  c #7C5437",
"/  c #483C45",
"(  c #583C43",
")  c #673B46",
"_  c #793B48",
"`  c #484148",
"'  c #5A4547",
"]  c #574B57",
"[  c #5C534A",
"{  c #6B4544",
"}  c #684946",
"|  c #744242",
" . c #794A48",
".. c #664A57",
"X. c #774C54",
"o. c #685657",
"O. c #765358",
"+. c #7A5648",
"@. c #77665F",
"#. c #5A5867",
"$. c #5F5F72",
"%. c #665868",
"&. c #785A65",
"*. c #5C6472",
"=. c #67616C",
"-. c #676675",
";. c #756979",
":. c #796B66",
">. c #84363E",
",. c #835A11",
"<. c #936716",
"1. c #82512E",
"2. c #825234",
"3. c #82553B",
"4. c #896425",
"5. c #997436",
"6. c #906822",
"7. c #A67F37",
"8. c #884D4D",
"9. c #974B4B",
"0. c #864E54",
"q. c #885253",
"w. c #9D5959",
"e. c #9A5658",
"r. c #8D514E",
"t. c #B74F45",
"y. c #B24F49",
"u. c #AD514C",
"i. c #A7534F",
"p. c #B35047",
"a. c #B15049",
"s. c #BC5348",
"d. c #A35654",
"f. c #A55556",
"g. c #B65A52",
"h. c #A44F4F",
"j. c #946848",
"k. c #997B4A",
"l. c #946E51",
"z. c #A77858",
"x. c #BA625B",
"c. c #915C64",
"v. c #9D646A",
"b. c #87736A",
"n. c #997367",
"m. c #926971",
"M. c #977576",
"N. c #88686D",
"B. c #A96766",
"V. c #BD6D69",
"C. c #B86B67",
"Z. c #DC6D5F",
"A. c #CD685E",
"S. c #E76F5F",
"D. c #E8705F",
"F. c #E7705F",
"G. c #C86B63",
"H. c #DC6D61",
"J. c #D46C61",
"K. c #DD756A",
"L. c #DA7469",
"P. c #C47878",
"I. c #D47972",
"U. c #E76F60",
"Y. c #E96F60",
"T. c #E57162",
"R. c #E87060",
"E. c #E17468",
"W. c #B98D29",
"Q. c #BF9527",
"!. c #B68D38",
"~. c #BB933E",
"^. c #A8883F",
"/. c #C3951E",
"(. c #C1942A",
"). c #B99145",
"_. c #A98954",
"`. c #B4945C",
"'. c #9C827C",
"]. c #B48366",
"[. c #B09170",
"{. c #C89676",
"}. c #CA8E7D",
"|. c #D6A17C",
" X c #D8A47F",
".X c #897A89",
"XX c #88808C",
"oX c #BA8B98",
"OX c #B1979B",
"+X c #A7948D",
"@X c #B7A280",
"#X c #ADA2A7",
"$X c #BB97AD",
"%X c #DA9A99",
"&X c #D09385",
"*X c #D5A281",
"=X c #DAA887",
"-X c #CBA998",
";X c #D7AA92",
":X c #D9B39E",
">X c #CEB19C",
",X c #CD9BA7",
"<X c #C8A9A6",
"1X c #DBB8A8",
"2X c #CAA7B7",
"3X c #C8B4B7",
"4X c #D1AFB1",
"5X c #EBBDAB",
"6X c #E8BCB0",
"7X c #E2B494",
"8X c #E1C5B2",
"9X c #F4CCBA",
"0X c #FBD2BB",
"qX c #F6D1BA",
"wX c #F4C6AB",
"eX c #BCB3C6",
"rX c #C5B3C8",
"tX c #CABDD4",
"yX c #DEBFD6",
"uX c #EFBEC0",
"iX c #D4C8D1",
"pX c #E7C6C3",
"aX c #E4C7D7",
"sX c #FBD4D4",
"dX c #F8D9C5",
"fX c #F8E2D3",
"gX c #EDD7EB",
"hX c #EDE6F6",
"jX c #F4E9FA",
"kX c #FFEAE4",
/* pixels */
"                                    e B Z Z N N N N N N N N N N w                                   ",
"                                  O z M V V C C C C C c C C C V M O .                               ",
"                                q z X.r.B.V.V.G.V.V.V.G.V.V.C.C.B.V k 0 e                           ",
"                              $ c v e.i.J.I.K.E.E.E.E.K.K.K.K.I.G.K v V M #                         ",
"                            q k 8.8.V.A.H.T.T.T.T.U.E.T.T.T.E.E.L.x.B.r.0.M q                       ",
"                            N C e.u.L.E.T.F.T.R.U.T.R.R.R.T.T.T.E.L.K.i.e.F Z &                     ",
"                          # N K B.G.H.T.F.T.D.D.R.R.R.R.F.D.F.T.T.T.L.G.V.G z &                     ",
"                          @ k K P.K.E.F.D.D.D.R.U.U.R.R.D.D.D.F.F.F.T.L.I.J v :                     ",
"                        , q N.B.P.I.K.U.D.R.R.R.S.U.T.R.R.R.D.D.R.T.T.E.I.9.| k 1                   ",
"                      * / ] rX4XP.I.K.U.R.R.D.R.R.R.R.R.R.D.R.R.R.T.R.T.K.g.w.G N                   ",
"                    * 7 / %.OXoX%X%XI.E.T.T.S.R.R.T.D.R.Y.Y.D.R.T.T.T.T.K.g.d.G c <                 ",
"                  * t / %.%.&.m.sXsX&XL.E.T.T.R.R.R.D.D.Y.U.R.R.Y.T.Y.T.K.g.d.G M <                 ",
"                = r *.;.XX.XN.m.sXsXP.G.L.T.S.U.U.R.R.R.R.R.R.R.T.T.T.H.A.g.d.G M <                 ",
"              5 r .XjXhXjXaXc.m.sXsXB.h.J.K.T.T.T.T.T.R.R.T.T.T.T.T.E.s.p.u.f.G V <                 ",
"              5 r XXjXhXjXaXm.M.uXuXB.u.A.H.H.U.H.H.Z.Z.H.H.U.H.H.H.H.s.p.u.w.G N ,                 ",
"              5 r XXjXhXhXgX4X<Xv.f.f.u.a.t.t.t.t.t.t.t.t.t.t.t.t.p.a.p.a.i.f.G M ,                 ",
"              5 t .XjXhXhXgX,X,Xv.h.h.y.y.y.y.y.y.y.y.y.y.p.y.y.p.p.p.a.u.i.w.G Z :                 ",
"              5 t ;.eXtXjXyX_ _ f.h.u.y.y.y.y.y.y.y.y.y.a.a.a.a.a.a.u.a.u.i.w.G Z 1                 ",
"              5 t ;.eXtXjXyX) _ f.f.u.u.u.u.u.u.y.u.y.u.u.u.u.y.u.a.u.u.i.d.e.G M 1                 ",
"              X = 7 ( ;.tXrX$XoX_ >.h.f.u.u.u.u.u.u.u.u.u.u.u.u.u.u.u.i.d.J n V M 1                 ",
"                X * t $.rXrXrX2X_ _ 9.e.f.f.h.f.d.d.d.d.d.d.d.d.d.d.d.w.e.D v b b 1                 ",
"                X X % 8 %.%...%.( ( ) ) ) ) F F F G F F F F F F F F D D D Q ! n b 1                 ",
"                      % e B B B / / B B k N N V c l c M l l c x l x x v x Q +.Y b 1                 ",
"                      , ' ( ' A > , %.N.) ( V l n Q n x c W Q W W W W W W Y n 4 1 @                 ",
"                      > } } Q S O X XXOXO.} n d W ^ D i j 3.2.2.2.2.2.3.3.n b ;                     ",
"                      > }  .n.N.O @ #X3X.Xn.W d 3.z.z.j.3.T R 1.1.1.2.T T 4 1 $                     ",
"                      > { +.-XoX$ @ iXkX1X-X^ u l.=X=X=X].i g 1.1.1.R h s #                         ",
"                      4 b.z.:X-X} } 8XfX5X:Xz.1.z.=X|.*Xz.i g 1.1.1.^ h b #                         ",
"                      Z >X:X0X0XdXdXqXqX0X0X7X*X|.|.|.=X].i j 1.^ ^ ^ n b #                         ",
"                      9 '.'.1X:XqXqXqXqXwXwX=X X|.|.{.].z.j j n Y Y I s 4 @                         ",
"                        . - } +.9X0XqX0X;X*X|.|.|. Xz.u j ^ Q +.......                              ",
"                          # S { 1X5X5X5X&X{.|. X{.{.l.a j ^ Y 3 ; $ $ .                             ",
"                            . - } | ! | ! ! V.;Xj.p a d a a L _._.a f $                             ",
"                              $ { ) { |  .! [.-Xj.a a a a a P !.!.L a $                             ",
"                                  - S H oX<X<X>X[._.5.P <.!.Q./.W.W.^.L 4                           ",
"                                  - S ) oX2X3X<X@X`.^.E 6.~.Q././.Q.).L f                           ",
"                                  c X.0.X...] [ [ U f # 4 <.<.Q.W.<.4.3 $                           ",
"                                  S 8.q.D V A A U y 9   1 E 4.~.(.P E #                             ",
"                                  V 0.q.J H 6 & 8 y y 9 9 3 f 4.6.^._.;                             ",
"                                  S 0.q.) ) ,...< y y U 9 o - E ,.).`.;                             ",
"                                   O.&...%.5...[ +X+X+X:.. ; _.5.5.5.;                              ",
"                                    %.=.$.$.7...b.fXdXdXOX. 1 [.`.E ~ # .                           ",
"                                } X...] #.*.7...:.8X1X8X'.O # } ~ 4 4 9 5 X                         ",
"                              H q.0.H N #.%.5...@.#X-X>XM.............y ` =                         ",
"                              x 8.9.J ) o.&.0 & U       o.& : : 1 > : A t =                         ",
"                              - 8.9.9.9.r.q.} S <       % U S } { ) ) A ` %                         ",
"                              - G J >.J J | S 0         @ w m N V V Z w y =                         ",
"                                                                                                    ",
"                                                                                                    ",
"                                                                                                    "
};
