/* XPM */
static char *_954ff4faefa495b84c648d4750852fcbWP9RejfOd8GAgt2[] = {
/* columns rows colors chars-per-pixel */
"50 50 231 2 ",
"   c grey",
".  c #0B0101",
"X  c #02040A",
"o  c #0B0909",
"O  c #130101",
"+  c #1B0001",
"@  c #1A0C0A",
"#  c #150A0A",
"$  c #17100F",
"%  c #151315",
"&  c #1D1519",
"*  c #1F1819",
"=  c #0D0A10",
"-  c #240909",
";  c #390505",
":  c #2B140D",
">  c #2B1212",
",  c #2B1D1B",
"<  c #271817",
"1  c #321A1C",
"2  c #371C19",
"3  c #2B130F",
"4  c #29201B",
"5  c #352318",
"6  c #3E2309",
"7  c #1C1C24",
"8  c #261C23",
"9  c #1A212A",
"0  c #2D2126",
"q  c #2B232B",
"w  c #272A2B",
"e  c #332223",
"r  c #3D2B2D",
"t  c #3A2626",
"y  c #38302D",
"u  c #362C3A",
"i  c #3B3E3D",
"p  c #39353A",
"a  c #2C2630",
"s  c #562E03",
"d  c #552D0B",
"f  c #442517",
"g  c #562F1A",
"h  c #49311B",
"j  c #583519",
"k  c #553209",
"l  c #643919",
"z  c #623B0E",
"x  c #481D20",
"c  c #432B2D",
"v  c #482828",
"b  c #542D25",
"n  c #5B2B25",
"m  c #542C2D",
"M  c #5B292A",
"N  c #5A2525",
"B  c #493427",
"V  c #543123",
"C  c #5A3E27",
"Z  c #4B2E33",
"A  c #472C39",
"S  c #542B32",
"D  c #4A3434",
"F  c #4C323C",
"G  c #453737",
"H  c #54343B",
"J  c #5A3738",
"K  c #653E27",
"L  c #69393A",
"P  c #702E34",
"I  c #3F413B",
"U  c #785416",
"Y  c #5C4228",
"T  c #44423D",
"R  c #5C4332",
"E  c #694426",
"W  c #754C2B",
"Q  c #764A27",
"!  c #7D572C",
"~  c #6B4539",
"^  c #744B3A",
"/  c #7A513D",
"(  c #7D5635",
")  c #76633C",
"_  c #363240",
"`  c #453741",
"'  c #543B43",
"]  c #592B40",
"[  c #693C44",
"{  c #783C47",
"}  c #3E4448",
"|  c #3D4954",
" . c #464348",
".. c #5C4143",
"X. c #464B58",
"o. c #514E5A",
"O. c #694847",
"+. c #734343",
"@. c #7D4546",
"#. c #7A4A49",
"$. c #785542",
"%. c #7B4D51",
"&. c #655554",
"*. c #64514A",
"=. c #5B5C66",
"-. c #6D5566",
";. c #5B6672",
":. c #5E646E",
">. c #77686B",
",. c #766B72",
"<. c #746743",
"1. c #83383A",
"2. c #815506",
"3. c #A87919",
"4. c #85512E",
"5. c #825232",
"6. c #815937",
"7. c #85403D",
"8. c #8A6428",
"9. c #9C7326",
"0. c #816437",
"q. c #926E37",
"w. c #98742F",
"e. c #A27929",
"r. c #A57D32",
"t. c #9A6B0C",
"y. c #963C42",
"u. c #813C41",
"i. c #894849",
"p. c #9A4B4D",
"a. c #895557",
"s. c #925151",
"d. c #9D5556",
"f. c #984D54",
"g. c #A34B4C",
"h. c #B44D44",
"j. c #B34F48",
"k. c #AD524C",
"l. c #AA524B",
"z. c #B15049",
"x. c #B65349",
"c. c #A55552",
"v. c #A25955",
"b. c #A75553",
"n. c #B55B53",
"m. c #98685B",
"M. c #8A6C50",
"N. c #BC645D",
"B. c #956E63",
"V. c #8E746B",
"C. c #B96F6B",
"Z. c #B46764",
"A. c #B7706C",
"S. c #B27779",
"D. c #A1757F",
"F. c #C45B51",
"G. c #C9645A",
"H. c #D16559",
"J. c #D7695B",
"K. c #E76F5F",
"L. c #E86F5F",
"P. c #E7705F",
"I. c #E8705F",
"U. c #D46E63",
"Y. c #C87169",
"T. c #DA766C",
"R. c #D4776E",
"E. c #D77A72",
"W. c #C77470",
"Q. c #E57163",
"!. c #E87060",
"~. c #E27568",
"^. c #E96F61",
"/. c #A68139",
"(. c #B2882F",
"). c #C3961A",
"_. c #C39727",
"`. c #C29831",
"'. c #BF9C48",
"]. c #9B837A",
"[. c #B5936F",
"{. c #C29C53",
"}. c #C69878",
"|. c #D39F7B",
" X c #C2936F",
".X c #D4A17D",
"XX c #CFA37F",
"oX c #7B7186",
"OX c #937B8A",
"+X c #B27380",
"@X c #9D828C",
"#X c #968D99",
"$X c #AB858C",
"%X c #B58493",
"&X c #B58C8B",
"*X c #B6A097",
"=X c #9793A3",
"-X c #A69BAB",
";X c #B79DB3",
":X c #B59AAE",
">X c #ACA1B3",
",X c #C49C8E",
"<X c #C99390",
"1X c #E29D97",
"2X c #D4A282",
"3X c #D7A68A",
"4X c #C9A592",
"5X c #D5A890",
"6X c #D39CA3",
"7X c #C5A9A2",
"8X c #CBB4A6",
"9X c #D3B4B6",
"0X c #E9B7B8",
"qX c #D9CABE",
"wX c #F4C7A9",
"eX c #E9C9B7",
"rX c #F6C9B9",
"tX c #F8D1BB",
"yX c #BDB4C9",
"uX c #CDB5C8",
"iX c #F6D5C6",
"pX c #E8CED7",
"aX c #F4E0D5",
"sX c #E9DFF4",
"dX c #E3DCEF",
"fX c #FCE3E7",
"gX c #EDE9F9",
"hX c #F2EBFC",
"jX c #F5E9FB",
"kX c #F7F2FF",
"lX c #D4CCE1",
/* pixels */
"                                  . o . . . O o . . O O o . .                                       ",
"                                @ c c c c c c c c c c c c c c #                                     ",
"                            . . > S M M M M M M M M M M M m S @ .                                   ",
"                        < r r v L S.A.A.C.C.C.C.C.C.C.C.A.d.a.J c @                                 ",
"                        < m n N 7.E.R.E.T.T.R.T.T.R.R.R.R.n.d.P b -                                 ",
"                    < t J a.d.Z.Y.E.~.~.Q.Q.Q.Q.Q.Q.~.Q.Q.U.Y.c.a.H r                               ",
"                    8 D +.v.N.E.T.U.!.Q.Q.Q.P.Q.Q.Q.Q.!.P.Q.T.n.d.L A &                             ",
"                  . 8 S i.Y.U.~.K.K.I.I.Q.P.P.Q.I.Q.P.Q.P.P.T.J.W.+.Z *                             ",
"                  . 1 N p.E.~.Q.Q.I.Q.!.!.!.I.I.I.!.^.I.^.Q.Q.T.E.{ _ > X                           ",
"                * , J i.n.T.Q.!.I.I.I.!.!.I.^.Q.Q.!.^.I.K.P.Q.T.E.+XOXo.8 %                         ",
"                0 Z #.v.G.T.!.!.I.I.!.!.!.!.!.Q.I.I.!.I.P.P.Q.R.W.6XuX,._ 7                         ",
"                0 A @.c.G.~.Q.!.I.^.!.!.I.!.!.!.I.K.!.I.Q.Q.T.1X0X<X+X>.o._ 7 %                     ",
"                0 Z @.b.G.~.~.!.!.^.!.^.^.Q.!.!.!.K.!.!.Q.Q.R.rXfX&Xa.>.=.| p 7                     ",
"                0 Z @.l.n.G.J.!.Q.Q.Q.Q.^.Q.Q.!.Q.Q.Q.Q.T.H.N.0XfX+Xa.OX-X=X#X=.7                   ",
"                8 F i.c.h.h.F.Q.Q.~.~.!.~.Q.Q.~.Q.Q.~.Q.~.n.g.0XfX&Xa.9XhXhXkX>Xu a                 ",
"                0 S @.c.z.h.n.H.H.H.H.H.H.H.H.H.H.H.H.H.H.x.l.<X9X%XOXuXgXgXhX-Xu q                 ",
"                e Z @.b.k.h.h.h.h.h.h.h.h.h.h.h.h.h.h.h.h.z.l.d.f.6XuXlXjXsXgX-X_ q                 ",
"                0 Z @.v.k.k.z.z.j.j.h.j.z.h.h.x.h.h.z.h.z.z.k.l.d.+X+XlXjXsXdX=X_ 8                 ",
"                e Z @.v.b.k.z.z.j.j.j.j.h.k.z.z.j.z.k.j.z.z.k.l.d.{ ] :XjXlXuXOXp q                 ",
"                e c ~ s.p.l.k.k.k.k.j.k.k.k.k.k.k.z.k.k.k.k.b.g.y.f.-.;XsXuX=XoXa 7                 ",
"                5 B m N 1.v.c.c.b.b.k.c.c.c.c.c.c.b.c.c.b.v.v.u.P +XuXuXuXoX_ 8 X X                 ",
"                4 b V n ^ s.s.s.s.s.s.f.s.s.s.s.s.s.s.s.s.s.a.{ L OX;X;X>X,.a 8                     ",
"                5 B ~ $.L n n N N n n n n n n n N M N M M S S S ] ] ` ` _ 8 X                       ",
"                4 r R / K g n n n n n n V n b n n b m S S H ' ` F A A ` ] 8                         ",
"                  O 5 h K $./ / / / / #.^ b V ^ $.b b O.O.OX#Xt . Z O.O.O.e                         ",
"                    , B K / ( ( 5.5.5.5.^ j l 5./ g g { O.@X-Xq X Z #.+.O.t                         ",
"                      O 2 j E 4.4.4.Q g E }.}.|. Xl g [.4XpXfXp X M.3Xm.+.t                         ",
"                        : g l 5.4.4.Q d E XX.X.X}.l j }.4XiXfXG . B.5Xm.^ t                         ",
"                        < h K 6.5.5.W d K .X.X.X|. X XwXwXtXiXqX6XeXrX5X,X*                         ",
"                        < B R $./ $.~ g K 2X.X.X|.|.2XwXtXtXeXtXiXiXtX9X4X&                         ",
"                          @ @ 3 3 3 f W Q Q 4.|..X.X|.3X5XwXtXiXiX[.M.J t &                         ",
"                              O + + : ! ! d l 2X.X.X2X3X3XrXtXiXiXV.O.,..                           ",
"                            @ 5 Y q.) z k k z Q 5.|.2Xm.M.m.B.B.B.m < #                             ",
"                            : k U '.(.s s s s s k }.,X+.L +.L +.O., .                               ",
"                          4 C w.(.(.(.9.8.U Q q.M.4X7X$X$X%.+.v 1 #                                 ",
"                          h ) '._.).).(.(.) ) [.[.8X8XuX9Xa.+.>....                                 ",
"                            j w.).).).)./.f h ) <.>.,.o.*.$.%.c 4 =                                 ",
"                            6 2.t.).).(./.O o h B T I o . O.a...T &                                 ",
"                            h /.t.3.(.(.! . o i I I I 4 , c m G G %                                 ",
"                            Y '.(.U U U Y . X I I I I I G # . y  .%                                 ",
"                            h /.9.9.8.j y X o w w I I >.V.&.*.y q 7 &                               ",
"                          O f 4.w. XM...........X I T qXaXiXaXG...t  .*                             ",
"                        @ > f Y W <.*.$ % 9 9 9 9 w y 8XeXeXiXG...t ' ,                             ",
"                        2 L N + + O $ _ | ;.;.;.=.o . *X*XeXiXD O v [ ,                             ",
"                        x u.P ; > @ * X.| X.X.X.| X . V.].*X7XD - S [ 1                             ",
"                      O M f.y.P L F  .:.X.= X X X X       O . Z [ [ { 1                             ",
"                      O N g.y.1.P L ' =.| X X               . r H ] H >                             ",
"                        N p.g.g.p.a...X X X                   . + + O .                             ",
"                        v i.i.i.i.i.J .                         . . .                               ",
"                          ; ; ; ; ; -                                                               "
};
