/* XPM */
static char *_a540b8e6e44449c8dec883c451631005LsSQq29KeBEHZ1b[] = {
/* columns rows colors chars-per-pixel */
"50 50 229 2 ",
"   c grey",
".  c #0B0101",
"X  c #0C0908",
"o  c #130101",
"O  c #150C0A",
"+  c #1B0D0C",
"@  c #1A0303",
"#  c #1D1414",
"$  c #1E1C1C",
"%  c #171319",
"&  c #1D0F10",
"*  c #240E0E",
"=  c #240405",
"-  c #2B130E",
";  c #261205",
":  c #241412",
">  c #291412",
",  c #231619",
"<  c #2C1C1C",
"1  c #261A17",
"2  c #331A19",
"3  c #30130B",
"4  c #2E201C",
"5  c #332219",
"6  c #3B200D",
"7  c #1E1D25",
"8  c #231D25",
"9  c #2D1E20",
"0  c #261F2C",
"q  c #2D2121",
"w  c #2A262C",
"e  c #392829",
"r  c #372D37",
"t  c #3A3337",
"y  c #2C2630",
"u  c #431F1A",
"i  c #552D01",
"p  c #582C0C",
"a  c #583006",
"s  c #462C1A",
"d  c #552E18",
"f  c #57351B",
"g  c #4E320F",
"h  c #65391A",
"j  c #613C0E",
"k  c #432D24",
"l  c #432B2D",
"z  c #4E2D2F",
"x  c #472528",
"c  c #552C25",
"v  c #5B2B24",
"b  c #552C2C",
"n  c #5B2A2A",
"m  c #592526",
"M  c #4B322B",
"N  c #473627",
"B  c #553829",
"V  c #4D2D30",
"C  c #482F35",
"Z  c #512E32",
"A  c #592A39",
"S  c #4B333B",
"D  c #453737",
"F  c #52333A",
"G  c #563837",
"H  c #6A3E21",
"J  c #623C24",
"K  c #68393B",
"L  c #763936",
"P  c #6B2E38",
"I  c #714B19",
"U  c #745217",
"Y  c #48413F",
"T  c #5D4139",
"R  c #65462B",
"E  c #774B2A",
"W  c #7B562C",
"Q  c #674539",
"!  c #71403D",
"~  c #754D37",
"^  c #7E5135",
"/  c #7B523C",
"(  c #765934",
")  c #393642",
"_  c #4B3B42",
"`  c #563E44",
"'  c #663C43",
"]  c #783E48",
"[  c #584144",
"{  c #574B56",
"}  c #53515C",
"|  c #4D444B",
" . c #6C4442",
".. c #644549",
"X. c #684949",
"o. c #754445",
"O. c #7A4345",
"+. c #764B47",
"@. c #67524A",
"#. c #775444",
"$. c #674B54",
"%. c #794B55",
"&. c #6D5958",
"*. c #77545D",
"=. c #746348",
"-. c #7F625C",
";. c #5E5A67",
":. c #665C69",
">. c #795964",
",. c #7C7166",
"<. c #776877",
"1. c #823C3C",
"2. c #A87E1F",
"3. c #815232",
"4. c #805F37",
"5. c #9D7326",
"6. c #886738",
"7. c #987636",
"8. c #906A2F",
"9. c #A27A2C",
"0. c #926810",
"q. c #84484A",
"w. c #9C504D",
"e. c #894E57",
"r. c #8C5253",
"t. c #875357",
"y. c #925251",
"u. c #9D5856",
"i. c #93524E",
"p. c #B44D44",
"a. c #B34F48",
"s. c #AD514B",
"d. c #A3524E",
"f. c #B15149",
"g. c #B8554C",
"h. c #A45553",
"j. c #A55756",
"k. c #B55C55",
"l. c #A04E4F",
"z. c #8D6B54",
"x. c #BB645C",
"c. c #986C63",
"v. c #82736C",
"b. c #997167",
"n. c #846D76",
"m. c #977E76",
"M. c #8D686A",
"N. c #B96F6B",
"B. c #B66863",
"V. c #B6716D",
"C. c #B9706A",
"Z. c #B2767A",
"A. c #C55A50",
"S. c #C8645B",
"D. c #D2655A",
"F. c #D26557",
"G. c #E8705F",
"H. c #D26F64",
"J. c #C5726C",
"K. c #DF7467",
"L. c #DA766C",
"P. c #D6776E",
"I. c #CB7B78",
"U. c #D57B72",
"Y. c #C36A62",
"T. c #E96F60",
"R. c #E57163",
"E. c #E87060",
"W. c #E87162",
"Q. c #E1756A",
"!. c #B48B34",
"~. c #C19637",
"^. c #C1942D",
"/. c #9F804F",
"(. c #BE9B55",
"). c #B48D4E",
"_. c #97827B",
"`. c #B6996B",
"'. c #B18C7B",
"]. c #B69679",
"[. c #C39842",
"{. c #CC9C7C",
"}. c #C29676",
"|. c #C3926F",
" X c #D5A17D",
".X c #CFA07E",
"XX c #987984",
"oX c #827789",
"OX c #A97D8A",
"+X c #918690",
"@X c #AC858A",
"#X c #B48A93",
"$X c #A5959B",
"%X c #BC9B90",
"&X c #B8A499",
"*X c #9793A1",
"=X c #A79AAB",
"-X c #B497AB",
";X c #B698B0",
":X c #B1A6B6",
">X c #ACA4B4",
",X c #CA9492",
"<X c #E19896",
"1X c #CBA288",
"2X c #D4A282",
"3X c #D7A78B",
"4X c #C6A698",
"5X c #D4AC9D",
"6X c #C9B49D",
"7X c #D7B5A9",
"8X c #D5B8B6",
"9X c #CFADB0",
"0X c #E8B3B4",
"qX c #DBC4B9",
"wX c #E4C3B4",
"eX c #F5CCB7",
"rX c #F6D0BC",
"tX c #F3C5AA",
"yX c #BCB4C6",
"uX c #C8B5C9",
"iX c #D3B3C5",
"pX c #E6D6CC",
"aX c #F6D4C6",
"sX c #EFD1D7",
"dX c #D8CEE2",
"fX c #EEDDED",
"gX c #FCE5E4",
"hX c #F7EAFB",
"jX c #F1EBFA",
/* pixels */
"                                    . . . . . o X X o o X X .                                       ",
"                              . . & r C l l l l l l l l l l l l +                                   ",
"                            . . . - b n n n n n n n n n n b Z Z * .                                 ",
"                          : e l x K Z.V.V.N.N.N.N.N.N.N.V.V.u.e.G x +                               ",
"                        . > z b d 1.I.U.L.P.P.L.L.P.P.P.P.P.k.u.L c * .                             ",
"                      , e G t.u.B.S.L.R.K.R.R.W.R.K.R.R.Q.Q.H.J.u.r.G e                             ",
"                      < z o.u.x.P.K.Q.R.W.R.T.R.R.G.G.W.W.R.R.L.k.u.' V ,                           ",
"                      1 c q.J.H.Q.W.R.R.W.R.T.R.G.G.G.E.W.W.R.R.H.J.q.V ,                           ",
"                    . < m i.P.K.R.W.E.E.E.E.E.E.G.R.G.E.E.W.R.R.L.I.] m , .                         ",
"                  # 9 G O.k.L.R.W.E.E.E.E.E.E.E.G.G.G.G.E.G.R.R.L.I.OXOX{ 8 %                       ",
"                  9 Z O.u.x.L.W.W.G.E.E.E.E.E.E.E.R.G.R.G.G.K.L.J.I.9XiXn.r 8                       ",
"                  9 V O.u.S.Q.W.R.W.E.E.E.E.E.G.E.G.G.G.R.R.K.P.<X0X,XOX<.{ ) 7                     ",
"                  9 b ] h.S.Q.Q.R.R.R.R.W.W.W.R.R.G.G.W.R.R.L.I.0XgXOXt.:.;.| r 7                   ",
"                  9 Z O.h.k.D.D.R.R.R.R.W.W.G.R.R.G.R.W.R.K.S.x.0XgX,X>.+X=X*X*X;.7 %               ",
"                  9 Z O.h.s.p.A.Q.Q.W.W.R.Q.W.W.R.Q.W.Q.R.Q.k.w.0XsX#X*.9XhXjXjX:X) y               ",
"                  9 V O.j.d.p.g.D.D.D.D.D.D.D.D.F.F.F.D.S.S.g.d.,X0X#XXXiXhXjXjX>Xr y               ",
"                  9 V O.u.s.a.a.p.p.p.p.p.p.p.p.p.p.p.p.p.a.a.s.l.e.;XiXsXfXfXhX:X) 0               ",
"                  q V o.j.s.s.a.a.s.p.a.a.p.p.a.p.p.a.p.p.a.s.s.l.u.Z.#XiXfXfXdX=X) w               ",
"                  q V o.u.j.s.s.a.s.s.a.f.f.f.f.a.f.f.f.f.f.s.s.j.j.] A ;XhXdXyX+Xt w               ",
"                  9 M ! r.w.h.s.s.s.s.s.s.s.s.f.f.s.s.s.s.s.s.d.l.l.e.%.;XfXiX=X<.y 8               ",
"                  4 M c d 1.j.h.h.h.j.h.h.h.h.h.h.h.d.h.h.h.h.j.1.P OXiXuXuXoX) 0                   ",
"                  4 M c v ! y.y.y.y.y.w.y.y.y.y.y.y.y.y.y.y.y.t.] A XX;X=X>X<.r 0                   ",
"                  4 N Q #.K m m m v v v v v n v m m n n n n b A A _ C _ C _ 8                       ",
"                  1 N G #.Q d c v f v v v v m m c c m b Z Z F _ C _ C C _ C <                       ",
"                  . . 2 N R / / / O./ / +.~ d c #.#.c c  .X.XX$Xt . l $...$.e                       ",
"                    . 1 k J / / 3.3.3.3./ ~ f h 3./ f d Q X.+X$Xe . M +. .X.e                       ",
"                      . o 2 f H 3.3.3.E p E }.}.{.}.h d '.%XpXgXY . t.4Xc.Q k                       ",
"                        . > d J 3.3.3.E p h .X2X2X{.h d ].4XaXgX[ . M.5Xb.Q x                       ",
"                          > N J / ^ 3.E p H {.2X X X|.|.0XtXrXaX8X7XwXrX5X%X@                       ",
"                          1 N B #.#./ ~ g H 2X2X X X X2XtXeXrXrXaXrXrXrX0X6X&                       ",
"                          o + * - > - 6 ~ E E W  X X X X3X3XtXrXrXaX@Xz.T e                         ",
"                              . o o o 3 ( E i h  X X X X3X2XeXaXaXaXm. .5                           ",
"                            . + 6 g =.=.j a a a ( 3.{.1Xc.i.c.c.c.b.G : +                           ",
"                            . ; g I (.!.a a i i i a }.1X+.K ! ! ! X.<                               ",
"                            5 f z.!.~.!.5.8.U I 6.z.1X6X@XOXq.' x 2                                 ",
"                            N ( [.~.^.^.~.).W 6.`.].6X9X8X8Xe.K 3 .                                 ",
"                            1 j 7.2.^.!.5.8.g s =.=.,.,.v.n.%.%.b 2                                 ",
"                              6 U 0.~.!.U R . . N t N t F G q.e.' G                                 ",
"                              s 7.5.9.4.g N 4 4 D t w 4 F K %.e.' G                                 ",
"                              N (.!.U I @ O D Y t N X X S ' %.e.' F                                 ",
"                              k /./.8.( X ; v.v.v.<.X X ` $.*.>...`                                 ",
"                              5 ( 6.`.z.. 4 pXaXaXpX# X } :.:.>.$.X.<                               ",
"                            # 4 B Q z.@.. 5 qXwXqXqX&} ;. ;.} $.%.X.x &                             ",
"                          4 Y q . o . o o 1 &X4X&X%X& X } :.| Z %.t...G                             ",
"                          $ | e * - * * + < _._._._.# + $.*.' P q.r.K x                             ",
"                          $ Y Y [ [ ` ` D t         D D &.*.t.r.y.r.u o                             ",
"                            t D S G S D D e         t D ..X.o.O.O.+.2                               ",
"                                  @ o .                 o @ = = = @ o                               ",
"                                                                                                    ",
"                                                                                                    "
};
