/* XPM */
static char *_3b69bd0dfc64c92c29f71d18d51b030e1WNbIQT2BLzFWre[] = {
/* columns rows colors chars-per-pixel */
"50 50 234 2 ",
"   c grey",
".  c #0B0202",
"X  c #0D0508",
"o  c #0C0A0B",
"O  c #110404",
"+  c #130C0B",
"@  c #1C0D0D",
"#  c #110509",
"$  c #1A110F",
"%  c #0B0E12",
"&  c #1A0E11",
"*  c #1C1413",
"=  c #1B1215",
"-  c #250C0A",
";  c #241414",
":  c #2C1414",
">  c #291917",
",  c #2C1C1D",
"<  c #241918",
"1  c #351817",
"2  c #27120F",
"3  c #38231A",
"4  c #3E3418",
"5  c #24201E",
"6  c #2B1F27",
"7  c #1D2124",
"8  c #282427",
"9  c #332325",
"0  c #392523",
"q  c #372727",
"w  c #282A32",
"e  c #392932",
"r  c #3C3234",
"t  c #3C3D3C",
"y  c #373537",
"u  c #333233",
"i  c #451D1D",
"p  c #531F1E",
"a  c #472319",
"s  c #4A381A",
"d  c #452B09",
"f  c #4C2629",
"g  c #472A2D",
"h  c #4C2A2D",
"j  c #472421",
"k  c #463527",
"l  c #5A3E2B",
"z  c #4B2D33",
"x  c #442E32",
"c  c #433934",
"v  c #4C3539",
"b  c #483836",
"n  c #573B38",
"m  c #592A2B",
"M  c #643A39",
"N  c #753C3C",
"B  c #7A3C3A",
"V  c #633E2F",
"C  c #5B423D",
"Z  c #564433",
"A  c #464138",
"S  c #664C3C",
"D  c #764A3A",
"F  c #755534",
"G  c #73532E",
"H  c #7D612E",
"J  c #3B3D41",
"K  c #443245",
"L  c #533844",
"P  c #6B3E43",
"I  c #623F43",
"U  c #703E4A",
"Y  c #38434C",
"T  c #5D4944",
"R  c #594645",
"E  c #594C52",
"W  c #595354",
"Q  c #494F55",
"!  c #634A45",
"~  c #6A4D46",
"^  c #664847",
"/  c #744647",
"(  c #6A524A",
")  c #73544A",
"_  c #745B4A",
"`  c #664D53",
"'  c #695357",
"]  c #785955",
"[  c #78655A",
"{  c #77694E",
"}  c #4A5A6A",
"|  c #505F6B",
" . c #775B62",
".. c #4C667B",
"X. c #566774",
"o. c #57626F",
"O. c #796866",
"+. c #7B6A71",
"@. c #8B3A3F",
"#. c #86493C",
"$. c #905732",
"%. c #AC4A3F",
"&. c #8B733E",
"*. c #884847",
"=. c #954947",
"-. c #9E524E",
";. c #8A4B51",
":. c #8C5357",
">. c #995556",
",. c #8C5650",
"<. c #AE4C44",
"1. c #A34E49",
"2. c #A84F49",
"3. c #B04D45",
"4. c #A5524C",
"5. c #AB514A",
"6. c #B0524B",
"7. c #A55652",
"8. c #A65956",
"9. c #B05550",
"0. c #87614A",
"q. c #957A4F",
"w. c #986A5E",
"e. c #896E58",
"r. c #A3625F",
"t. c #A67859",
"y. c #8A5B64",
"u. c #985C64",
"i. c #8A6A64",
"p. c #976469",
"a. c #897369",
"s. c #98766A",
"d. c #997573",
"f. c #A56866",
"g. c #A27E7A",
"h. c #B27A73",
"j. c #CA645B",
"k. c #D6695E",
"l. c #E76F5F",
"z. c #E8705F",
"x. c #CB6E67",
"c. c #D76C61",
"v. c #CC736D",
"b. c #DE7165",
"n. c #D9756A",
"m. c #C97A75",
"M. c #D77E76",
"N. c #E96F60",
"B. c #E57162",
"V. c #E87060",
"C. c #E6776A",
"Z. c #A6905E",
"A. c #9C8279",
"S. c #BD976E",
"D. c #A58778",
"F. c #B88E7B",
"G. c #B5957C",
"H. c #AB8A68",
"J. c #BDA076",
"K. c #DA817B",
"L. c #D5817B",
"P. c #C2996F",
"I. c #E2837B",
"U. c #D3A473",
"Y. c #516C80",
"T. c #847685",
"R. c #B77F87",
"E. c #928793",
"W. c #9E9496",
"Q. c #958787",
"!. c #A68B80",
"~. c #B6968B",
"^. c #B99D92",
"/. c #B48D92",
"(. c #BCA49B",
"). c #BA94A3",
"_. c #B498A9",
"`. c #A799A6",
"'. c #B2A4B6",
"]. c #B6A6AB",
"[. c #CC8484",
"{. c #C8959E",
"}. c #CD8E87",
"|. c #CCA58B",
" X c #CCA487",
".X c #CAA795",
"XX c #D4AB98",
"oX c #D8B29B",
"OX c #D1A98D",
"+X c #E7BA9D",
"@X c #CA9EAA",
"#X c #C6A6A9",
"$X c #CFB6AC",
"%X c #D8B7A7",
"&X c #D4ABB7",
"*X c #D6B5BA",
"=X c #CDAFB6",
"-X c #ECBFA3",
";X c #E7B3B8",
":X c #DCC2B4",
">X c #E9C8B6",
",X c #F4CEB6",
"<X c #F3CEBA",
"1X c #FBD3BA",
"2X c #F6D1B9",
"3X c #EEC4A8",
"4X c #BAB5CD",
"5X c #B7B5CE",
"6X c #BBB7D1",
"7X c #BCB9D3",
"8X c #B7AEC4",
"9X c #C4AEC4",
"0X c #C7B5C8",
"qX c #DAB8C4",
"wX c #C5BDD6",
"eX c #C9BCD4",
"rX c #D7BED1",
"tX c #E1B8C6",
"yX c #CCC0CE",
"uX c #FAD9C7",
"iX c #EDCED9",
"pX c #F1D3DC",
"aX c #F0D4C8",
"sX c #FFE5D4",
"dX c #FEE7D9",
"fX c #FFE3CE",
"gX c #E4DBE9",
"hX c #E7DCE9",
"jX c #FFDEE0",
"kX c #FFE6E6",
"lX c #EBE6FC",
"zX c #EBE8FD",
"xX c #FFFEFF",
"cX c #FFEBF1",
/* pixels */
"                                                                                                    ",
"                                      q g g f g g z f z g g g 0                                     ",
"                                  & - M D N B B N U B B B B P M @ @                                 ",
"                                v f j L.L.L.L.K.M.M.M.K.M.I.[.h.p h v                               ",
"                              h / *.#.n.n.b.b.b.b.b.b.b.C.b.n.x.=./ / g                             ",
"                            v / u.v.I.n.B.B.B.B.B.B.N.B.B.B.B.n.I.v.r./ v                           ",
"                            h / 4.j.b.B.B.B.B.B.N.B.N.B.N.B.B.B.B.j.1.P z                           ",
"                          ; h ;.v.b.C.z.z.V.z.z.B.N.N.N.N.N.N.B.B.c.m.*.h                           ",
"                          ; f >.M.B.B.N.N.N.B.N.B.B.B.B.N.B.N.N.B.b.K.=.h $                         ",
"                          ; f >.I.b.B.N.N.B.B.B.B.b.b.b.B.B.N.N.N.B.K.*.f @                         ",
"                          > m -.M.B.B.B.B.B.M.M.M.[.M.M.n.B.B.B.B.b.M.=.m 2                         ",
"                          P 8.7.%.c.C.C.C.x.}.jXjXcXjXjX[.v.C.B.C.k.<.4.w.M                         ",
"                          M 8.2.<.j.c.c.v.[.@XkXiXqXpXjX@X[.x.k.c.j.3.5.8.m                         ",
"                          i f.2.6.3.<.1.8.;XtXxX@Xn qXxXqX&X>.2.<.<.6.2.f.1                         ",
"                          a r.2.6.6.9.7.u.*X&X&X/.;./.&X&X&Xu.9.5.6.5.4.r.1                         ",
"                          j f.9.9.1.=.;.y.tX).U ;.>.;.U @XqX:.>.-.1.9.7.f.1                         ",
"                          : P ;.>.R.{.)._.0X9X_.).)._._.0X0X_.).{.R.>.*.I 2                         ",
"                          ; f / y.@XrXeXwX6XwXwXwXwXwXwXwX6XwXeXqX@X:.P f @                         ",
"                          : z / y.@XeX9X6X6X4X5X4X5X5X5X6X6X5X4XrX_.y.^ h @                         ",
"                       ^.@d.~ M K L K 8XwXlXlXlXlXlXzXzXlXlXwX'.K L z P ^ Ad^.@                     ",
"                      > $XH.! C z z x '.0XhXgXgXgXgXgXgXgXgX4X_.e v z R ( !..X@                     ",
"                      > :XA.1 C ( ' ' R E ' R 6 q 9 9 9 E ' E E ' ( ( I 3 D.:X@                     ",
"                      * Q.[ 3 ~ i.) ) i.i.^ ^ ( ^ ( ~ ~ ^ E +.+.^ ] a.~ 3 O.Q.+                     ",
"                            k a.>X,.V (.^.3 ( %X.XXX.X$XR x './.n e.>XO.4 $                         ",
"                            * [ .XH.e.:X$X2.S.>XXX-XoX;Xb...yX$Xa.H.#X( ;                           ",
"                              [ >XOX.XdXsX..y.sX,X2X1XuX5...cXdX.XXX>X(                             ",
"                              q b D..X<XaXA.^.1X,X,X,XuX~.!.aX>X|.s.b                               ",
"                                  A.oX<X2XfXfX,X,X1X1X,XuXfX1X,XoXa.                                ",
"                                  S 0. XoX,X,X1X-X X3X1X<X<XXX X{ l                                 ",
"                                  l F S. X,X,X1X-XP.-X1X<X<X XS.G s                                 ",
"                                  e.J.G G 3 D oX|.OX XoXl a G $.P.q.4 A b R T O                     ",
"                                . { Z.H F l ) ~.~.!.G.~.~ n G $.S.&.4 A c ( ] 2 @                   ",
"                            R t k s d Z.J.,X~.- 0 0 3 : @XtX=.$.U.Z.d A 3 D.%X_ T                   ",
"                          < R T [ Z s q.t.F.g. .W r '  .R.[.=.$.>.S 3 C ) F..X/ n                   ",
"                          > l a.:X( k F #.D >.iXE.6 W.iX:.@.1.#.. o...O.<XXXoX] !                   ",
"                        0 ~ ~..X<XZ - D #.=.p.qXT.w T.qX:.=.=.U...y W.a.e.w.s.j ,                   ",
"                        ^ g.dX<XdXb...! / :.d.pXE.w `.iXp.:./ ^...W xXW.n ~ ! O                     ",
"                      - C s.uX>XsXc...v n : 1 r 6 % 8 r 6 > ; < u u A 8 $ 2 < .                     ",
"                      @ ^ d.dXaXcXb   A b.....................% Q 8> T n T = .                      ",
"                      . O 0 ] / ] >     o t t t J J Q X.} } | } X.Y                                 ",
"                          > T n T =       t t t J J Q X...Y.Y...X.Y                                 ",
"                          . . . .                   ....} Y.Y.} Y w                                 ",
"                                                    % % Y } } } w 7                                 ",
"                                                    u E K y c e...o                                 ",
"                                                    7 6 L ^ ^ v....                                 ",
"                                                      ..] i.i.]....                                 ",
"                                                      O 1 i i 1 X.                                  ",
"                                                                                                    ",
"                                                                                                    ",
"                                                                                                    "
};
