/* XPM */
static char *ed8c57ed0946459bb7d2cb29dd296be5ePp9ideMBO4rIe2p[] = {
/* columns rows colors chars-per-pixel */
"50 50 228 2 ",
"   c grey",
".  c #0B0303",
"X  c #0C0A0C",
"o  c #03060B",
"O  c #130202",
"+  c #130B0B",
"@  c #190909",
"#  c #17100F",
"$  c #0D0F11",
"%  c #0D1013",
"&  c #191413",
"*  c #0D100E",
"=  c #270704",
"-  c #231414",
";  c #251B1C",
":  c #2B1B1C",
">  c #281815",
",  c #351F1D",
"<  c #281110",
"1  c #3D2505",
"2  c #2D211E",
"3  c #37231C",
"4  c #3D320E",
"5  c #191B23",
"6  c #2B1B23",
"7  c #3A1F20",
"8  c #2A2727",
"9  c #352523",
"0  c #3E2424",
"q  c #392C28",
"w  c #292D32",
"e  c #38373A",
"r  c #2A3239",
"t  c #192435",
"y  c #4A1D1C",
"u  c #473719",
"i  c #40241C",
"p  c #412924",
"a  c #4D2729",
"s  c #4D2A2C",
"d  c #432829",
"f  c #552C2C",
"g  c #47372A",
"h  c #492D30",
"j  c #472C34",
"k  c #4B3434",
"l  c #4A3637",
"z  c #573839",
"x  c #53382E",
"c  c #652E2E",
"v  c #6F2925",
"b  c #662D30",
"n  c #663636",
"m  c #763E3B",
"M  c #4B4238",
"N  c #59453B",
"B  c #664538",
"V  c #6E4C2E",
"C  c #353C44",
"Z  c #463C47",
"A  c #573D40",
"S  c #633F43",
"D  c #7D3D48",
"F  c #3C444E",
"G  c #3A4755",
"H  c #49464A",
"J  c #5B4442",
"K  c #53434A",
"L  c #574747",
"P  c #434A52",
"I  c #585054",
"U  c #544E54",
"Y  c #624643",
"T  c #684D48",
"R  c #784648",
"E  c #6B524A",
"W  c #71534D",
"Q  c #785D48",
"!  c #674F53",
"~  c #764D51",
"^  c #695454",
"/  c #7A5657",
"(  c #7B6659",
")  c #475C6D",
"_  c #505D69",
"`  c #775961",
"'  c #6D5C66",
"]  c #4A657B",
"[  c #556A7A",
"{  c #746769",
"}  c #65747F",
"|  c #74646E",
" . c #844939",
".. c #8D4F36",
"X. c #A8453B",
"o. c #8D6A37",
"O. c #A0643E",
"+. c #87494A",
"@. c #954A4A",
"#. c #9E534F",
"$. c #874B53",
"%. c #89575E",
"&. c #88595A",
"*. c #995657",
"=. c #83574A",
"-. c #A94D48",
";. c #B24F47",
":. c #A4524C",
">. c #AB524C",
",. c #B1524B",
"<. c #A85754",
"1. c #B85F5B",
"2. c #876942",
"3. c #89675B",
"4. c #946D5B",
"5. c #907B50",
"6. c #A5625E",
"7. c #AE6759",
"8. c #885F68",
"9. c #856963",
"0. c #9A6362",
"q. c #8A7268",
"w. c #96776A",
"e. c #937172",
"r. c #A96A68",
"t. c #BB7272",
"y. c #B46F67",
"u. c #C25B51",
"i. c #C5645C",
"p. c #C9645A",
"a. c #D46A5E",
"s. c #DA6C5F",
"d. c #E6715F",
"f. c #D46C61",
"g. c #DD7265",
"h. c #DB7469",
"j. c #D3766D",
"k. c #C57974",
"l. c #D17F7A",
"z. c #DA7C74",
"x. c #E76F61",
"c. c #E57162",
"v. c #E87060",
"b. c #E5776B",
"n. c #968051",
"m. c #A8865A",
"M. c #9C8176",
"N. c #9C806E",
"B. c #B79274",
"V. c #A9846F",
"C. c #C1975E",
"Z. c #DE857C",
"A. c #C88F79",
"S. c #E2867D",
"D. c #D0A776",
"F. c #556C81",
"G. c #627383",
"H. c #BE7E86",
"J. c #A88B87",
"K. c #B88589",
"L. c #B79689",
"P. c #B59996",
"I. c #B18C90",
"U. c #BFA498",
"Y. c #BD9BAB",
"T. c #BA99A7",
"R. c #A89BAD",
"E. c #BBA7B5",
"W. c #B5AEAD",
"Q. c #8C8483",
"!. c #D48C8B",
"~. c #C29E8B",
"^. c #CD9F82",
"/. c #C79B98",
"(. c #CF8885",
"). c #E59C96",
"_. c #CAA48C",
"`. c #D1A284",
"'. c #CDAA95",
"]. c #C3A394",
"[. c #D3AC96",
"{. c #D7AD9B",
"}. c #D2B396",
"|. c #C79AA7",
" X c #D9A2A7",
".X c #D9B8A7",
"XX c #D7B8B8",
"oX c #CEAFB3",
"OX c #E4A6A3",
"+X c #E2BBA2",
"@X c #DBC4B9",
"#X c #E8C2AB",
"$X c #F2C7AC",
"%X c #E8C7B7",
"&X c #F1CBB5",
"*X c #F6CFB8",
"=X c #F9D0B5",
"-X c #F5D2BB",
";X c #FCD4BA",
":X c #F6D1B7",
">X c #B7B4CD",
",X c #B9B5CE",
"<X c #BCB7D2",
"1X c #C7B6CC",
"2X c #DAB7C6",
"3X c #C3BBD4",
"4X c #C8BBD4",
"5X c #C3BAD6",
"6X c #C6AFC5",
"7X c #CEC2D2",
"8X c #D9C7D6",
"9X c #D6C3CD",
"0X c #EDD0C8",
"qX c #FAD9C6",
"wX c #F7D5DB",
"eX c #F7CED1",
"rX c #FFEADB",
"tX c #DFDDF3",
"yX c #D9D6EC",
"uX c #FEDEE5",
"iX c #E1DDF3",
"pX c #FFEAEA",
"aX c #FFF6EA",
"sX c #F9EAF5",
"dX c #FAF2FF",
"fX c #FFFCFE",
"gX c #FFFCF1",
"hX c #E2E0F5",
/* pixels */
"                                                                                                    ",
"                                      j h j s h h h h j j j j 9                                     ",
"                                  O a n c b b c b b b b b b n a O @                                 ",
"                                h y r.(.l.l.l.l.l.l.l.l.l.A.(.r.y k l                               ",
"                              n n v y.z.g.g.h.h.h.g.g.g.h.h.j.y.v n n 0                             ",
"                            ~ 0.k.S.h.c.c.c.v.c.d.c.c.c.c.c.g.h.Z.t.0.~ l                           ",
"                          j R :.p.h.c.c.c.x.x.v.d.d.v.d.c.x.c.c.h.i.#.R s                           ",
"                          s +.u.a.c.c.v.x.x.x.x.v.x.x.d.x.x.c.c.b.f.1.+.s :                         ",
"                        : a *.!.g.c.x.x.x.x.x.x.c.c.x.v.v.v.v.c.d.g.S.*.f :                         ",
"                        6 a *.z.g.d.c.x.v.x.x.x.b.c.c.v.c.x.v.v.c.g.z.*.f :                         ",
"                        : y *.S.c.d.c.c.c.b.f.f.f.a.a.s.c.c.x.d.c.g.S.#.y >                         ",
"                        f V <.i.s.c.c.c.c.j.).). XOXOX).j.g.c.x.c.s.p.<.D h                         ",
"                        R r.>.X.a.b.b.b.h.t.wXsXdXdXsXwXt.j.b.b.b.s.X.>.r.R                         ",
"                        n *.-.;.u.u.p.1.!./.wXuXT.T.uXwX/.!.1.i.p.u.;.>.*.n                         ",
"                        f r.-.,.;.;.>.@. X2XsXdX$./ dXsX2X X@.:.-.>.;.:.6.f                         ",
"                        f 6.-.>.,.<.<.*. X2XP.K.0.0.I.I.2XoX*.<.,.,.>.>.6.f                         ",
"                        z r.#.<.:.@.#.$.|.2X8.R $.*.R ` 2X|.$.*.@.-.<.:.r.f                         ",
"                        7 n +.*.H.|.Y.T.6X4XE.Y.T.T.Y.E.1X6XY.|.|.H.*.+.S 7                         ",
"                      . : a D %.|.2X5X5X<X<X5X3X5X4X5X5X<X<X5X4X4X|.8.D a ,...                      ",
"                    9   : a ~ 8.|.4X5X<X,X>X>X>X,X,X,X,X,X>X<X1X8XY.8.D a :...2                     ",
"                    l P.9.Y Y z S Z R.3XyXiXtXtXiXiXiXiXiXyX5XR.Z ! A S T { P.l                     ",
"                    N @Xw.W A d Z w R.4XsXdXdXdXdXdXdXdXdXsX4XR.6 h 0 A W w.@XN                     ",
"                    z XX3.3 J ^ S ! ` ` ' { K K A Z Z U | | ' ' ^ ! ^ J i 3.XXN                     ",
"                    M @X( 3 Y E ~ ~ T ! T ^ q p p h 0 q ! I ! ! ^ W W B 3 ( @XM                     ",
"                      . : p q..X3.B J.}.B 3 P.]./.].].P.q L E.J.B 9..Xq.p , .                       ",
"                        2 3 q..X4.B L.oXN 3 U.'._._.'.P.3 K E.J.Y 4..Xq.q ;                         ",
"                            ( #X_.~.-XgXq   XX;X=X=X;X@X  8 fX0X]._..X{                             ",
"                            ^ ].~.~.&XaXk O %X;X=X=XqX#XO l gX0XL._.].^                             ",
"                                q.}.#XqXqXrX*X*X;X=X:X-XqXqXqX%X}.w.                                ",
"                                3._..X&X&X&X*X=X$X$X:X:X*X&X&X.XL.3.                                ",
"                                g V B.`.-XqX;X;XD.^.;X;XqX;X_.B.V g                                 ",
"                      - # * # . V 2.m.B.'.{.+X$X`.`.$X#X}.'.B.m.2.N                                 ",
"                    , ^ L M M M n.D...V y = ].[.[.{.[.L.= 1 V V }.( o                               ",
"                  - x q.J g M 4 o.C.o. .=.Q M.M.N.N.V.M.Q Q o.o.n.V * & &                           ",
"                : W w.%X3.4 M 4 5.D.O. .OXeXd > q 3 > 0 0XOXB.m.4 u u M H 2                         ",
"                > B &.{.N.Q N > B +.....t.K.8.| l Z | q.B.B.5.2.4 N ( E L 9                         ",
"                : E r.+X'.-XL . . . m :.@.D XX9XC Z 1XoXD ....V u ( @Xw.x 2                         ",
"                @ 9 B w.4.q.q.Q.q . n +.@.$.|.E.Z Z oX|.$.@.+.B < B %XU.L.Q ,                       ",
"                    , E T g W.fXUA $.A$.*.$.2X8XP H 8X2X&.&.B z o N rX-XpXL.T                       ",
"                      9 3 2 H { e 6 9 7 d 0 L U 5 5 U L 0 a B j o N rX#XqXV.z                       ",
"                                w P *G G G G F F w w wow w woLe   ! aXqXpXL.T                       ",
"                                F _ G G G G F F w w w 8 8 8 & &   q e.q.w.N -                       ",
"                                G G.[ F.F.[ G.G.P P P H H M       - ! N W 9                         ",
"                                r G ) ] ] ] t 5 % * % * % *         - - - +                         ",
"                                w F ) [ [ [ o                                                       ",
"                                X o e G F H e                                                       ",
"                                q l j lq l lK                                                       ",
"                                o . J / ~ / @                                                       ",
"                                .Y %Y %.&.&.@                                                       ",
"                                . O O = = = O                                                       "
};
