/* XPM */
static char *_871fa95665b41028c1cee264150c7abXB6zYRV5K0ruzwu8[] = {
/* columns rows colors chars-per-pixel */
"50 50 191 2 ",
"   c grey",
".  c #0B0001",
"X  c #01020A",
"o  c #140000",
"O  c #1C0200",
"+  c #240100",
"@  c #300001",
"#  c #3D342F",
"$  c #3E3334",
"%  c #3E3E3B",
"&  c #3F3439",
"*  c #552F0D",
"=  c #592E09",
"-  c #4E3F0D",
";  c #553403",
":  c #5B3300",
">  c #54310C",
",  c #573B0B",
"<  c #542F13",
"1  c #552D1C",
"2  c #5B2A1C",
"3  c #4C351A",
"4  c #523112",
"5  c #54391B",
"6  c #642F00",
"7  c #643700",
"8  c #66221F",
"9  c #7B341E",
"0  c #4F2E22",
"q  c #4D2E2C",
"w  c #5D2726",
"e  c #552C23",
"r  c #5A2925",
"t  c #5D2629",
"y  c #542A2C",
"u  c #5A282A",
"i  c #4B3123",
"p  c #44332B",
"a  c #49302C",
"s  c #433F2C",
"d  c #4B3B2C",
"f  c #523729",
"g  c #5C322C",
"h  c #563726",
"j  c #4B2E32",
"k  c #432F38",
"l  c #512A31",
"z  c #433134",
"x  c #4F3734",
"c  c #443D34",
"v  c #4A3935",
"b  c #42313A",
"n  c #423C3A",
"m  c #4A3939",
"M  c #533532",
"N  c #5A3230",
"B  c #632424",
"V  c #692D27",
"C  c #652D28",
"Z  c #60312B",
"A  c #6C3B27",
"S  c #673A37",
"D  c #713535",
"F  c #773421",
"G  c #3B4038",
"H  c #494113",
"J  c #434128",
"K  c #7F532C",
"L  c #6C473E",
"P  c #6A483F",
"I  c #7E5336",
"U  c #7B523D",
"Y  c #77553D",
"T  c #3E3E41",
"R  c #5E3C49",
"E  c #6C3741",
"W  c #334249",
"Q  c #374143",
"!  c #5F4B49",
"~  c #6D4640",
"^  c #644A45",
"/  c #694842",
"(  c #634A49",
")  c #755443",
"_  c #7A5241",
"`  c #7A555C",
"'  c #76575D",
"]  c #5A635E",
"[  c #5D5F6B",
"{  c #5A5F72",
"}  c #615F66",
"|  c #6C5965",
" . c #695A67",
".. c #755761",
"X. c #55636C",
"o. c #5B6264",
"O. c #566271",
"+. c #8A5701",
"@. c #8A5900",
"#. c #82590A",
"$. c #845514",
"%. c #8E5013",
"&. c #84512C",
"*. c #9A4C37",
"=. c #825132",
"-. c #924D4D",
";. c #8E4D52",
":. c #8D5E5D",
">. c #805357",
",. c #9D5756",
"<. c #9C5855",
"1. c #925C5C",
"2. c #99595A",
"3. c #975A57",
"4. c #B54E44",
"5. c #B94D42",
"6. c #B24F49",
"7. c #A5544E",
"8. c #AC524B",
"9. c #A2584F",
"0. c #B25047",
"q. c #B15049",
"w. c #A35552",
"e. c #915D61",
"r. c #BF7F7F",
"t. c #E86E5F",
"y. c #E6715F",
"u. c #E8705F",
"i. c #DE7467",
"p. c #DE7366",
"a. c #D4776D",
"s. c #DA756B",
"d. c #D97669",
"f. c #DC7469",
"g. c #DB756B",
"h. c #C67D75",
"j. c #C97B77",
"k. c #CD7A73",
"l. c #CA7A79",
"z. c #C77C79",
"x. c #D27972",
"c. c #E96F60",
"v. c #E56F61",
"b. c #E37262",
"n. c #E67160",
"m. c #E57162",
"M. c #E67062",
"N. c #E57262",
"B. c #E37264",
"V. c #E17266",
"C. c #E57164",
"Z. c #E27467",
"A. c #E87060",
"S. c #E97161",
"D. c #E87062",
"F. c #BE9521",
"G. c #BC923C",
"H. c #BC9435",
"J. c #C6970A",
"K. c #C8970C",
"L. c #C69514",
"P. c #C3951C",
"I. c #C49226",
"U. c #C3922C",
"Y. c #C48F35",
"T. c #AF944D",
"R. c #BB9243",
"E. c #B4934B",
"W. c #AD9555",
"Q. c #B49253",
"!. c #B3915B",
"~. c #B89055",
"^. c #AD916A",
"/. c #A89566",
"(. c #B19164",
"). c #A69373",
"_. c #C88950",
"`. c #BBA79B",
"'. c #BAA89C",
"]. c #BAA7A0",
"[. c #CDA18D",
"{. c #C3A595",
"}. c #C9A292",
"|. c #C3A49A",
" X c #F6CFBE",
".X c #F4D1BE",
"XX c #F6CEC3",
"oX c #F8CEC0",
"OX c #EFD2C3",
"+X c #EED3CA",
"@X c #F4D0C4",
/* pixels */
"                                                                                                    ",
"                                    z k j z j j z j j x j j k b                                     ",
"                                  . y u w t t t B t t t r r u l o .                                 ",
"                              z j y [.z.j.j.j.l.l.l.l.l.l.l.l.r.y j z                               ",
"                            q y t 8 x.a.f.s.g.g.g.g.g.g.g.d.a.x.8 r y j                             ",
"                          j 1.2.l.a.f.B.B.B.C.n.B.n.C.n.C.B.C.g.a.j.,.1.z                           ",
"                          l ,.8.s.p.C.v.v.n.n.n.n.n.n.n.n.y.n.b.i.a.8.,.y                           ",
"                        j u k.f.f.v.v.v.c.v.c.D.n.n.D.u.D.D.u.u.n.Z.g.j.u j                         ",
"                      o l 8 a.f.n.y.u.u.c.c.u.u.c.D.D.u.D.u.u.D.n.b.Z.x.B y o                       ",
"                      j e.w.s.C.n.u.u.u.y.c.c.u.D.D.u.u.u.D.u.u.u.y.C.d.w.1.z                       ",
"                    & j 2.8.f.C.C.c.D.u.u.u.u.D.u.u.D.D.D.u.D.u.y.y.n.i.8.2.l b                     ",
"                    b l ,.q.f.v.n.v.u.u.D.u.u.D.D.u.u.u.u.u.D.n.y.y.B.i.8.,.l b                     ",
"                    & j ;.6.f.p.C.C.c.c.n.D.D.u.D.c.D.v.u.D.n.n.b.B.B.g.8.,.l b                     ",
"                    R l ,.6.4.5.V.C.C.C.n.n.y.n.y.n.n.n.D.n.n.B.B.B.4.4.8.w.l b                     ",
"                    & l ,.8.6.6.Z.V.B.V.n.n.B.y.B.B.B.n.n.C.B.V.B.i.4.6.8.2.l b                     ",
"                    b l 2.w.8.6.4.5.5.5.b.p.d.d.d.d.d.i.f.B.5.4.4.4.6.q.w.2.l z                     ",
"                    b j e.2.8.q.6.0.4.4.d.d.k.(.l.j.h.k.d.d.4.4.4.6.8.8.2.e.j z                     ",
"                    j j l B w.8.6.q.6.q.8.9.C u Z C Z V 9.7.q.6.6.6.8.w.B y j z                     ",
"                  p a q l u w.7.q.8.8.8.<.3.N M x v v M 3.<.7.q.8.8.8.w.u l q a p                   ",
"                  o |.|.q y 2.w.7.7.8.w.C g M m m m v M g V w.8.8.w.w.2.y y |.|.o                   ",
"                  o {.}.0 y 1.2.,.w.w.w.V Z N M M M M y g V 9.9.w.<.2.1.y e }.{..                   ",
"                  o {.}.i y e r u B ,.,.2.1.:.:.:.:.:.:.1.3.<.<.B w r e i 0 }.{.                    ",
"                    '.{.i 0 e e e e 1.2.1.:.1.:.:.:.:.1.:.3.3.1.r e e e 0 i {.'                     ",
"                      o i 0 ) ) e e r r r r r r r r r r r r r r e e ) _ i i o                       ",
"                        p a ) _ 1 1 2 r e 2 e r e e 1 e e e e 2 < 1 Y ) i p                         ",
"                          o 3 1 Y U U _ U U U _ U U U -.U _ U U Y Y 1 3 o                           ",
"                            p i Y U I =.=.=.=.=.=.=.&.=.=.=.=.=.I Y i p                             ",
"                              o 0 < U =.=.&.&.&.&.&.&.&.&.=.=.U 1 i o                               ",
"                                # i ) ) I K &.&.&.&.&.&.=.U Y ) i p                                 ",
"                                    o O < * =.&.&.&.&.K = < + o o . J Q G n ! (                     ",
"                                    o + > * I K &.&.&.K * 4 O o ....n Q J n / / o                   ",
"                                G J ).^.* * < * = .........(.).# R J n n v }.}./ (                  ",
"                                % s /./.: ; 3 4 : : : : : : !.^.h m n n v f [.[.~ (                 ",
"                          R T J % s 3 , W.(.O + E.H.H.H.G.Y.7 : A S m c '.{.[.[.L ^                 ",
"                        T J n c n c h 5 ^.^.O + H.F.P.L.P.I.7 6 F D M n '.|.}.}.~ (                 ",
"                        . . `.`.c v S S + + (.E.F.J.K.K.K.P.Y._.*.-.o.....o P P o o                 ",
"                      o . o {.{.v M D D + + Q.Y.P.K.K.K.K.L.Y._.*.-.o       ^ ^ .                   ",
"                    ! ^ +X+X.XOXo O ;.;.h 4 $.@.F.K.L.K.L.P.@.%.9 D o                               ",
"                    ^ ~ @X.X.XOXo o ;.-.2 > $.@.U.I.I.I.I.U.@.%.A S .                               ",
"                    ( L XX.X.XOX. o E D 2 > ~.R.@.@.@.@.@.@.R.(.h m n !                             ",
"                    ( / @XoXXX+X. . ! R q 3 ^.Q.K @.@.@.@.#.!.).c % R Q                             ",
"                      o / L L ^ o.....| v d o O G.E.G.G.R.W.O...] X.X                               ",
"                        ( ^ ^ ( . X } o.% n.... W.T.G.T.W./...X X.X.X                               ",
"                            o . . X X X.....n c H H H H H J ] X.W T                                 ",
"                                            G G G J J J % G X.O.W Q                                 ",
"                                                        } [ { O.X                                   ",
"                                                        | ..| | X                                   ",
"                                                        ..`......                                   ",
"                                                        ` >.>.` o                                   ",
"                                                          @ @ +                                     "
};
