/* XPM */
static char *_7dc9a8432944416ce17e48e3fa7ab58RBGo6RHyUuvXqmjs[] = {
/* columns rows colors chars-per-pixel */
"50 50 227 2 ",
"   c grey",
".  c #0B0101",
"X  c #080708",
"o  c #120000",
"O  c #1A0000",
"+  c #190D0C",
"@  c #18120E",
"#  c #1C1311",
"$  c #181615",
"%  c #100F10",
"&  c #221411",
"*  c #2C1A14",
"=  c #231C1B",
"-  c #2C1E1E",
";  c #341C16",
":  c #321409",
">  c #26231F",
",  c #37241C",
"<  c #3F2005",
"1  c #3E1F21",
"2  c #2E2122",
"3  c #272827",
"4  c #3A262A",
"5  c #3D2D2C",
"6  c #382826",
"7  c #3A382A",
"8  c #383735",
"9  c #272E33",
"0  c #501F1C",
"q  c #552E01",
"w  c #572B0A",
"e  c #53300B",
"r  c #4A2D1A",
"t  c #54291D",
"y  c #56261F",
"u  c #4C3A13",
"i  c #553615",
"p  c #4C2D04",
"a  c #633316",
"s  c #411F21",
"d  c #442B2D",
"f  c #492824",
"g  c #562622",
"h  c #5A2423",
"j  c #532A21",
"k  c #522B2D",
"l  c #5D2A2B",
"z  c #5E2A27",
"x  c #4C3222",
"c  c #47392B",
"v  c #52352C",
"b  c #5A312A",
"n  c #52382B",
"m  c #583727",
"M  c #4E2D31",
"N  c #442E31",
"B  c #552E30",
"V  c #443432",
"C  c #4F3432",
"Z  c #433D36",
"A  c #4A3A34",
"S  c #423E3B",
"D  c #4E3D3B",
"F  c #513532",
"G  c #533C3A",
"H  c #583934",
"J  c #693E2E",
"K  c #673B28",
"L  c #643C35",
"P  c #6A3C32",
"I  c #633939",
"U  c #753E3B",
"Y  c #773936",
"T  c #602121",
"R  c #3E443D",
"E  c #4B4017",
"W  c #76481A",
"Q  c #795214",
"!  c #6E4411",
"~  c #454026",
"^  c #46413B",
"/  c #54433E",
"(  c #5B4D34",
")  c #65422D",
"_  c #6C4728",
"`  c #704622",
"'  c #794929",
"]  c #654433",
"[  c #6C4B3A",
"{  c #75413E",
"}  c #774D32",
"|  c #7E553C",
" . c #765837",
".. c #765627",
"X. c #7C6330",
"o. c #2F3A42",
"O. c #483B42",
"+. c #3B4148",
"@. c #454643",
"#. c #5A4644",
"$. c #485459",
"%. c #57555B",
"&. c #654A44",
"*. c #6B4A42",
"=. c #654741",
"-. c #734040",
";. c #754B4B",
":. c #7D4947",
">. c #675348",
",. c #735D53",
"<. c #725A4D",
"1. c #756550",
"2. c #5E5E69",
"3. c #725A65",
"4. c #596466",
"5. c #656367",
"6. c #7C6661",
"7. c #885800",
"8. c #855504",
"9. c #814618",
"0. c #91630C",
"q. c #8C6316",
"w. c #96671D",
"e. c #8F630D",
"r. c #A87819",
"t. c #84512D",
"y. c #845925",
"u. c #874A3A",
"i. c #825333",
"p. c #81523A",
"a. c #825D3A",
"s. c #90533B",
"d. c #8B682A",
"f. c #966F2B",
"g. c #8B6537",
"h. c #A47724",
"j. c #AB6B38",
"k. c #854C4C",
"l. c #8B4C4D",
"z. c #854943",
"x. c #944D4B",
"c. c #85514E",
"v. c #894E50",
"b. c #864F51",
"n. c #934D52",
"m. c #885457",
"M. c #955E5D",
"N. c #9B5C5B",
"B. c #9E5B56",
"V. c #9C5349",
"C. c #B34D44",
"Z. c #B14F48",
"A. c #A6544F",
"S. c #AC524C",
"D. c #B15048",
"F. c #BB574E",
"G. c #B15046",
"H. c #A45652",
"J. c #A25955",
"K. c #A85E58",
"L. c #B65A51",
"P. c #8E764A",
"I. c #98774A",
"U. c #937B58",
"Y. c #8D6858",
"T. c #A6615E",
"R. c #B4635B",
"E. c #B87848",
"W. c #926161",
"Q. c #90786F",
"!. c #AF6765",
"~. c #BF746F",
"^. c #BC7573",
"/. c #C3584E",
"(. c #C3574B",
"). c #D5695C",
"_. c #CD675C",
"`. c #E76F5F",
"'. c #E8705F",
"]. c #CD6C63",
"[. c #C46D67",
"{. c #C7746E",
"}. c #DC7466",
"|. c #D4756C",
" X c #DA766B",
".X c #DA796E",
"XX c #D67A6E",
"oX c #CE7E73",
"OX c #D27C72",
"+X c #E57162",
"@X c #E87060",
"#X c #E17469",
"$X c #B8871E",
"%X c #B88924",
"&X c #B88A35",
"*X c #C6970D",
"=X c #C5980C",
"-X c #C4961B",
";X c #C49616",
":X c #C59627",
">X c #C19733",
",X c #C3993B",
"<X c #C08D23",
"1X c #9D8D5A",
"2X c #A18948",
"3X c #B89345",
"4X c #BB9956",
"5X c #BF975B",
"6X c #A38E5A",
"7X c #9D867E",
"8X c #B5947A",
"9X c #B9A177",
"0X c #C69747",
"qX c #C09C54",
"wX c #9E8C84",
"eX c #A38C83",
"rX c #BA9385",
"tX c #BB9B94",
"yX c #C9A999",
"uX c #D3AFA5",
"iX c #C7B1A5",
"pX c #D5B7AC",
"aX c #D1B0A8",
"sX c #DDC1B8",
"dX c #F5D2C2",
"fX c #F6D9CC",
"gX c #F9D2C4",
/* pixels */
"                                                                                                    ",
"                                  2 N N d d M N N M d d M d 5 1                                     ",
"                                o 1 B l l l l l l l l l l B B 1 o .                                 ",
"                            N d f W.^.^.^.~.^.{.{.~.~.~.^.^.^.W.f d 5 -                             ",
"                          6 B l T K.OX|. X X X X X X X|.|.|.OXJ.T z B 6 .                           ",
"                        d ;.m.!.[.|. X#X+X#X+X+X+X#X+X#X+X#X#X|.[.!.m.;.4 2                         ",
"                      6 k k.H.]. X#X+X+X`.+X`.+X`.`.`.+X+X`.#X#X X[.H.b.B 4                         ",
"                      4 g T.{.}.#X+X`.@X`.`.+X@X+X`.@X@X`.`.`.+X#X}.{.T.g 6                         ",
"                    o f h R..X#X+X@X'.'.@X@X@X@X@X@X@X@X@X@X@X+X+X#X|.R.T 1 .                       ",
"                    4 ;.l.[.#X+X+X@X'.'.@X@X@X@X@X@X@X@X@X@X@X@X`.+X#X[.n.;.4 -                     ",
"                  4 M b.H.].#X+X@X@X'.'.@X@X'.@X@X@X@X@X@X@X@X@X`.#X#X].H.b.M 4                     ",
"                  4 k l.S.].#X+X+X@X'.+X@X@X'.'.@X@X@X@X@X@X@X@X`.+X#X].A.l.k 4                     ",
"                  4 k v.S.].#X#X+X@X+X@X'.'.'.+X`.+X`.`.@X+X@X@X+X+X#X].A.l.M 4                     ",
"                  4 k v.H.F./.).+X+X+X+X+X'.+X'.+X`.+X`.@X`.+X+X+X)./.F.A.v.M 4                     ",
"                  4 B v.H.D.C.).#X+X#X+X'.'.`.+X+X+X`.`.+X+X+X#X#X).C.S.H.v.M 4                     ",
"                  4 k v.H.S.Z.F././.(.).#X}.}.}.}.}.}.#X#X).(././.F.Z.S.H.v.M 4                     ",
"                  4 M m.J.A.S.Z.D.C.C.)..XXX5X|.OXoXOXXX.X_.C.C.C.G.S.A.J.m.M 6                     ",
"              = 2 N M I Y x.A.S.D.D.D.L.R.V.x.z.:.z.z.V.R.L.G.G.C.S.S.x.Y I M d 2 >                 ",
"              5 V N M k l l.H.S.S.S.S.A.J.{ l v k F k { B.S.S.S.S.S.S.l.h k d M V 5                 ",
"              # & 6.Q.H h k.H.H.S.S.S.z.{ H F A A A F L { z.A.S.S.A.H.k.k I Q.3.& #                 ",
"                  eXiX-.j c.N.B.J.J.J.Y z b F F C C F l z Y J.J.H.J.B.c.j -.iX7Xo                   ",
"                  wXyX[ j P { U Y x.B.l.:.:.;.;.;.;.;.k.z.l.J.x.Y { { P j [ yX7X.                   ",
"                  eXiX[ j j t y h k.N.N.N.W.W.W.W.W.W.W.W.N.N.z.h g g j j [ iXwX.                   ",
"                  @.#.C r H ] b y P { { -.{ -.-.-.{ -.-.{ { -.L g b ] H x n >.G                     ",
"                      , x [ <.K t y y y g y g g j j g g h g y y t m <.[ x 6                         ",
"                        * n ) ) K J J P J J P P P P P P J P J J K ) _ n * &                         ",
"                          , x [ | | | | p.p.p.i.| | i.p.p.p.| | <.} r ,                             ",
"                            ; m ) } t.i.i.t.t.t.t.t.t.t.t.i.i.} ) m ;                               ",
"                              , x ] | | i.t.t.t.t.t.t.i.i.| | ] r ,                                 ",
"                  = - = $ = $ = , r x K ` ' t.t.t.t.t.' _ K x f , #                                 ",
"                . G #./ D @.^ $ . . o < e ` i.t.t.t.} W e < o . .                                   ",
"              * * ,.Q./ S 8 S > # 6 v i e a W W ` W ` K e u n 6 # %                                 ",
"              / *.rXyX*.c 8 ^ ^ n U.9X..q q q q q q e e p ..9XU.R 3                                 ",
"              G [ rXyXW.,./ A n a a.I.y.8.Q Q Q Q E p i ..X.P.1.7 7 % $ $                           ",
"              #.*.rXyXyXiX<.C H a a q j.0X&X>X,X3X` o ] 9XP.u x ~ ^ R ^ @.9                         ",
"              5 F Q.8XQ.Q.D f P Y 9.9.r.:X;X=X-X>Xd.r ] Y. .x F A ( %.#.6 2                         ",
"                o H *.&     O L s.E.,X<X;X*X=X=X-X&X4X[ o ; P G v ,.iXQ.                            ",
"                  5 D +     O L s.j.&X<%X$X$X$X%X$XeX..: y U I 6 <.pXeXV 5 &                        ",
"                            o j a 9.8.r%X$X$X$X%X$Xe ! w Y x.I O ] fXdXfXaX&.D                      ",
"                          X + d K t.w.r.%X$X$X$X%X$Xe.Q w K k.l O #.fXdXgXaX&.D                     ",
"                          9 D A E I.5Xf.8.7.7.7.7.h.4Xg.w b I d o #.fXgXgXuX=.D                     ",
"                          3 8 ^ ~ 1.1Xd.q.e.0.e.q.g.2X .f F &.5 . G sXpXpXtXG V                     ",
"                              @.4.> X  .4X3X3X3X4X( o * A #.3.O.  * &.&.*.H o                       ",
"                              +.4.9 X <.1X2X2X2X6X( . > 8 +.%.o.  & #.G #.N                         ",
"                              9 +.$.2.@.E E E E E ~ ^ 3                                             ",
"                              9 o.$.4.$.R R 7 c 7 7 8 =                                             ",
"                              X X o.4.2.4.3                                                         ",
"                                . O.3.3.,.6                                                         ",
"                                . G m.m.3.d                                                         ",
"                                O I n.n.n.f                                                         "
};
